<svg xmlns = "http://www.w3.org/2000/svg" width = "1000" height = "1000">
<g>
<polygon points = "583.159, 871.672 606.982, 884.108 592.343, 941.155 577.168, 934.977 554.022, 878.438 "
fill = "red" stroke = "black"/>
</g>
<g>
<polygon points = "665.379, 781.688 660.885, 769.878 668.763, 687.999 691.950, 695.552 697.636, 770.273 "
fill = "red" stroke = "black"/>
</g>
<g>
<polygon points = "399.748, 48.528 484.252, 59.618 478.208, 70.799 430.906, 106.130 413.132, 99.314 "
fill = "red" stroke = "black"/>
</g>
<g>
<polygon points = "93.841, 35.903 55.367, 43.412 12.170, 0.000 97.714, 0.000 "
fill = "red" stroke = "black"/>
</g>
<g>
<polygon points = "897.149, 48.644 963.789, 111.057 873.668, 76.956 "
fill = "red" stroke = "black"/>
</g>
<g>
<polygon points = "740.564, 807.975 764.883, 827.560 774.808, 870.992 701.586, 835.099 "
fill = "red" stroke = "black"/>
</g>
<g>
<polygon points = "241.683, 895.851 229.647, 903.691 152.175, 902.783 145.101, 900.849 173.609, 841.495 234.089, 843.715 241.493, 852.544 "
fill = "red" stroke = "black"/>
</g>
<g>
<polygon points = "949.278, 785.549 894.741, 823.271 860.083, 815.188 853.153, 790.430 877.183, 758.946 "
fill = "red" stroke = "black"/>
</g>
<g>
<polygon points = "294.902, 960.475 316.505, 943.557 358.081, 921.184 392.889, 951.499 390.153, 1000.000 289.252, 1000.000 "
fill = "red" stroke = "black"/>
</g>
<g>
<polygon points = "43.839, 413.090 56.017, 372.262 110.907, 392.009 110.683, 392.473 73.749, 420.509 "
fill = "red" stroke = "black"/>
</g>
<g>
<polygon points = "305.646, 851.953 360.905, 882.988 359.847, 916.606 358.081, 921.184 316.505, 943.557 "
fill = "red" stroke = "black"/>
</g>
<g>
<polygon points = "140.243, 814.653 138.951, 761.351 162.818, 735.237 239.770, 762.651 234.089, 843.715 173.609, 841.495 "
fill = "red" stroke = "black"/>
</g>
<g>
<polygon points = "442.929, 380.181 481.899, 331.259 543.288, 338.835 469.847, 428.163 447.183, 431.956 445.430, 430.183 434.916, 408.122 "
fill = "red" stroke = "black"/>
</g>
<g>
<polygon points = "447.343, 959.869 498.279, 962.695 509.722, 1000.000 424.989, 1000.000 "
fill = "red" stroke = "black"/>
</g>
<g>
<polygon points = "879.049, 151.899 851.433, 96.912 853.234, 95.154 925.809, 135.143 "
fill = "red" stroke = "black"/>
</g>
<g>
<polygon points = "683.761, 512.571 776.435, 523.221 768.157, 559.274 749.960, 576.981 686.407, 551.962 "
fill = "red" stroke = "black"/>
</g>
<g>
<polygon points = "969.775, 619.331 923.799, 597.282 953.733, 540.993 1000.000, 547.434 1000.000, 622.175 "
fill = "red" stroke = "black"/>
</g>
<g>
<polygon points = "712.246, 607.198 686.225, 552.304 686.407, 551.962 749.960, 576.981 755.378, 602.795 "
fill = "red" stroke = "black"/>
</g>
<g>
<polygon points = "399.567, 282.805 313.052, 284.090 303.220, 268.627 350.451, 169.567 363.631, 170.267 421.548, 201.630 400.879, 281.736 399.959, 282.580 "
fill = "red" stroke = "black"/>
</g>
<g>
<polygon points = "383.117, 725.388 397.839, 776.174 391.093, 781.465 374.829, 789.625 358.156, 788.649 329.059, 763.384 "
fill = "red" stroke = "black"/>
</g>
<g>
<polygon points = "681.569, 851.156 736.341, 895.423 708.735, 905.412 684.967, 901.152 666.125, 879.120 "
fill = "red" stroke = "black"/>
</g>
<g>
<polygon points = "432.940, 196.899 421.548, 201.630 363.631, 170.267 380.359, 115.955 386.124, 112.165 413.132, 99.314 430.906, 106.130 "
fill = "red" stroke = "black"/>
</g>
<g>
<polygon points = "162.016, 727.750 244.557, 669.265 247.986, 750.862 248.141, 756.637 239.770, 762.651 162.818, 735.237 "
fill = "red" stroke = "black"/>
</g>
<g>
<polygon points = "107.428, 451.248 73.749, 420.509 110.683, 392.473 120.887, 451.162 "
fill = "red" stroke = "black"/>
</g>
<g>
<polygon points = "295.544, 845.021 317.759, 759.034 329.059, 763.384 358.156, 788.649 346.194, 820.731 299.810, 846.262 "
fill = "red" stroke = "black"/>
</g>
<g>
<polygon points = "188.251, 382.145 152.127, 360.958 198.159, 319.391 208.494, 317.167 215.171, 359.964 "
fill = "red" stroke = "black"/>
</g>
<g>
<polygon points = "290.229, 561.310 295.907, 556.451 331.152, 607.596 301.028, 647.136 "
fill = "red" stroke = "black"/>
</g>
<g>
<polygon points = "860.686, 178.818 903.700, 234.247 882.761, 241.592 792.341, 244.578 790.105, 223.624 801.870, 202.333 824.881, 180.724 "
fill = "red" stroke = "black"/>
</g>
<g>
<polygon points = "37.543, 634.366 42.375, 725.078 0.000, 759.299 0.000, 634.134 "
fill = "red" stroke = "black"/>
</g>
<g>
<polygon points = "825.459, 117.719 815.772, 135.271 765.175, 135.721 758.429, 132.507 777.092, 89.816 806.674, 89.904 828.614, 106.491 "
fill = "red" stroke = "black"/>
</g>
<g>
<polygon points = "217.305, 480.211 135.331, 458.721 134.601, 456.308 185.351, 428.793 199.695, 426.873 231.047, 446.342 220.699, 478.211 "
fill = "red" stroke = "black"/>
</g>
<g>
<polygon points = "374.240, 864.839 360.905, 882.988 305.646, 851.953 299.810, 846.262 346.194, 820.731 "
fill = "red" stroke = "black"/>
</g>
<g>
<polygon points = "867.769, 1000.000 867.545, 999.125 980.983, 882.477 1000.000, 876.569 1000.000, 1000.000 "
fill = "red" stroke = "black"/>
</g>
<g>
<polygon points = "602.457, 706.471 564.413, 737.616 520.547, 735.410 497.222, 692.500 504.143, 659.299 607.878, 695.651 "
fill = "red" stroke = "black"/>
</g>
<g>
<polygon points = "814.261, 38.325 856.725, 67.589 861.903, 79.388 853.234, 95.154 851.433, 96.912 828.614, 106.491 806.674, 89.904 "
fill = "red" stroke = "black"/>
</g>
<g>
<polygon points = "580.679, 420.041 589.499, 438.852 577.229, 512.945 564.825, 525.031 530.910, 521.657 529.900, 478.369 "
fill = "red" stroke = "black"/>
</g>
<g>
<polygon points = "55.367, 43.412 34.422, 51.002 0.000, 29.004 0.000, 0.000 12.170, 0.000 "
fill = "red" stroke = "black"/>
</g>
<g>
<polygon points = "432.116, 708.770 434.322, 768.487 397.839, 776.174 383.117, 725.388 396.606, 689.846 "
fill = "red" stroke = "black"/>
</g>
<g>
<polygon points = "244.299, 441.085 319.322, 498.084 309.817, 535.898 301.473, 547.632 297.964, 551.046 238.929, 509.837 220.699, 478.211 231.047, 446.342 "
fill = "red" stroke = "black"/>
</g>
<g>
<polygon points = "865.211, 350.422 866.802, 350.811 879.883, 366.120 863.232, 447.981 824.965, 456.526 768.702, 412.720 769.026, 407.424 829.978, 348.489 "
fill = "red" stroke = "black"/>
</g>
<g>
<polygon points = "667.374, 946.633 679.217, 941.879 685.824, 941.372 714.312, 948.609 705.081, 1000.000 679.351, 1000.000 "
fill = "red" stroke = "black"/>
</g>
<g>
<polygon points = "291.020, 53.050 281.982, 63.924 272.311, 66.359 182.339, 7.404 179.075, 0.000 294.439, 0.000 "
fill = "red" stroke = "black"/>
</g>
<g>
<polygon points = "428.925, 946.202 392.889, 951.499 358.081, 921.184 359.847, 916.606 434.871, 898.441 "
fill = "red" stroke = "black"/>
</g>
<g>
<polygon points = "845.607, 592.880 860.068, 614.019 853.098, 621.516 776.314, 647.249 755.378, 602.795 749.960, 576.981 768.157, 559.274 "
fill = "red" stroke = "black"/>
</g>
<g>
<polygon points = "343.875, 453.276 334.990, 424.523 339.734, 384.052 370.558, 374.447 434.916, 408.122 445.430, 430.183 "
fill = "red" stroke = "black"/>
</g>
<g>
<polygon points = "247.850, 436.304 334.990, 424.523 343.875, 453.276 337.504, 480.433 319.322, 498.084 244.299, 441.085 "
fill = "red" stroke = "black"/>
</g>
<g>
<polygon points = "67.113, 324.489 85.006, 312.678 123.000, 322.693 151.928, 360.981 138.020, 380.755 118.480, 385.233 "
fill = "red" stroke = "black"/>
</g>
<g>
<polygon points = "769.880, 903.851 728.036, 944.072 714.312, 948.609 685.824, 941.372 708.735, 905.412 736.341, 895.423 "
fill = "red" stroke = "black"/>
</g>
<g>
<polygon points = "745.558, 699.237 749.604, 745.940 745.169, 756.702 734.319, 768.778 697.636, 770.273 691.950, 695.552 "
fill = "red" stroke = "black"/>
</g>
<g>
<polygon points = "445.933, 445.779 389.931, 485.684 354.208, 485.612 337.504, 480.433 343.875, 453.276 445.430, 430.183 447.183, 431.956 "
fill = "red" stroke = "black"/>
</g>
<g>
<polygon points = "158.499, 81.808 182.339, 7.404 272.311, 66.359 257.711, 77.855 197.868, 109.986 184.537, 112.667 "
fill = "red" stroke = "black"/>
</g>
<g>
<polygon points = "42.375, 725.078 70.150, 732.905 96.327, 756.617 47.836, 813.362 0.000, 766.945 0.000, 759.299 "
fill = "red" stroke = "black"/>
</g>
<g>
<polygon points = "880.685, 605.819 886.990, 539.775 949.009, 525.411 953.733, 540.993 923.799, 597.282 "
fill = "red" stroke = "black"/>
</g>
<g>
<polygon points = "517.002, 869.966 497.305, 882.952 456.789, 868.469 445.122, 853.187 459.891, 786.827 502.413, 771.810 533.126, 822.050 "
fill = "red" stroke = "black"/>
</g>
<g>
<polygon points = "996.636, 765.515 942.655, 718.832 937.560, 699.561 969.775, 619.331 1000.000, 622.175 1000.000, 766.120 "
fill = "red" stroke = "black"/>
</g>
<g>
<polygon points = "704.014, 341.670 795.047, 289.714 829.978, 348.489 769.026, 407.424 "
fill = "red" stroke = "black"/>
</g>
<g>
<polygon points = "383.767, 37.308 357.357, 0.000 387.266, 0.000 "
fill = "red" stroke = "black"/>
</g>
<g>
<polygon points = "697.788, 231.737 696.772, 265.618 690.230, 273.159 641.656, 255.439 589.042, 208.511 597.463, 198.516 660.436, 182.146 "
fill = "red" stroke = "black"/>
</g>
<g>
<polygon points = "95.614, 602.290 56.096, 623.145 37.554, 546.177 68.900, 508.989 98.987, 522.824 "
fill = "red" stroke = "black"/>
</g>
<g>
<polygon points = "168.174, 604.901 172.850, 539.923 188.522, 525.591 211.022, 544.288 215.541, 564.460 171.156, 606.786 "
fill = "red" stroke = "black"/>
</g>
<g>
<polygon points = "63.159, 490.430 68.900, 508.989 37.554, 546.177 0.000, 532.117 0.000, 443.400 "
fill = "red" stroke = "black"/>
</g>
<g>
<polygon points = "54.637, 835.904 64.079, 849.098 26.778, 923.903 0.000, 929.130 0.000, 842.305 "
fill = "red" stroke = "black"/>
</g>
<g>
<polygon points = "97.565, 258.587 105.494, 225.970 107.733, 223.522 154.692, 236.786 153.649, 298.691 123.000, 322.693 85.006, 312.678 "
fill = "red" stroke = "black"/>
</g>
<g>
<polygon points = "245.767, 194.213 224.110, 231.922 220.110, 233.080 208.790, 229.371 174.795, 130.689 184.537, 112.667 197.868, 109.986 251.675, 182.294 "
fill = "red" stroke = "black"/>
</g>
<g>
<polygon points = "941.187, 422.241 929.138, 387.337 1000.000, 375.093 1000.000, 422.767 "
fill = "red" stroke = "black"/>
</g>
<g>
<polygon points = "401.224, 850.903 374.240, 864.839 346.194, 820.731 358.156, 788.649 374.829, 789.625 "
fill = "red" stroke = "black"/>
</g>
<g>
<polygon points = "587.900, 561.636 591.874, 569.779 594.269, 578.017 574.433, 617.537 512.880, 626.521 481.547, 559.293 486.699, 544.597 530.910, 521.657 564.825, 525.031 "
fill = "red" stroke = "black"/>
</g>
<g>
<polygon points = "426.706, 553.661 388.154, 527.545 389.714, 524.095 403.522, 515.541 "
fill = "red" stroke = "black"/>
</g>
<g>
<polygon points = "966.034, 130.018 925.809, 135.143 853.234, 95.154 861.903, 79.388 873.668, 76.956 963.789, 111.057 978.356, 119.047 "
fill = "red" stroke = "black"/>
</g>
<g>
<polygon points = "602.625, 126.321 640.914, 80.064 661.856, 59.250 671.351, 65.212 692.195, 112.059 691.204, 117.640 662.567, 179.955 660.436, 182.146 597.463, 198.516 "
fill = "red" stroke = "black"/>
</g>
<g>
<polygon points = "242.160, 643.997 182.087, 626.044 171.156, 606.786 215.541, 564.460 283.201, 566.439 "
fill = "red" stroke = "black"/>
</g>
<g>
<polygon points = "544.739, 338.450 585.692, 402.553 580.617, 419.345 483.552, 432.349 469.847, 428.163 543.288, 338.835 "
fill = "red" stroke = "black"/>
</g>
<g>
<polygon points = "444.458, 853.071 401.224, 850.903 374.829, 789.625 391.093, 781.465 "
fill = "red" stroke = "black"/>
</g>
<g>
<polygon points = "337.504, 480.433 354.208, 485.612 389.714, 524.095 388.154, 527.545 377.506, 543.208 309.817, 535.898 319.322, 498.084 "
fill = "red" stroke = "black"/>
</g>
<g>
<polygon points = "580.617, 419.345 585.692, 402.553 628.362, 392.004 637.207, 392.027 652.863, 483.249 589.499, 438.852 580.679, 420.041 "
fill = "red" stroke = "black"/>
</g>
<g>
<polygon points = "929.099, 279.095 965.079, 329.588 926.881, 384.602 879.883, 366.120 866.802, 350.811 "
fill = "red" stroke = "black"/>
</g>
<g>
<polygon points = "34.422, 51.002 55.367, 43.412 93.841, 35.903 102.065, 66.663 99.662, 70.244 46.913, 114.652 34.792, 115.691 "
fill = "red" stroke = "black"/>
</g>
<g>
<polygon points = "832.443, 844.206 829.944, 846.354 786.404, 807.502 793.678, 796.825 845.683, 825.770 "
fill = "red" stroke = "black"/>
</g>
<g>
<polygon points = "624.208, 950.208 649.015, 939.962 667.374, 946.633 679.351, 1000.000 647.430, 1000.000 "
fill = "red" stroke = "black"/>
</g>
<g>
<polygon points = "57.285, 328.021 56.017, 372.262 43.839, 413.090 0.000, 442.902 0.000, 308.795 "
fill = "red" stroke = "black"/>
</g>
<g>
<polygon points = "661.889, 581.663 663.591, 642.121 648.256, 669.913 626.350, 673.140 574.433, 617.537 594.269, 578.017 "
fill = "red" stroke = "black"/>
</g>
<g>
<polygon points = "786.404, 807.502 829.944, 846.354 785.475, 895.349 774.808, 870.992 764.883, 827.560 "
fill = "red" stroke = "black"/>
</g>
<g>
<polygon points = "845.683, 825.770 793.678, 796.825 793.789, 793.017 808.884, 775.515 835.759, 772.967 853.153, 790.430 860.083, 815.188 "
fill = "red" stroke = "black"/>
</g>
<g>
<polygon points = "614.816, 313.972 641.656, 255.439 690.230, 273.159 691.203, 321.573 624.255, 318.573 "
fill = "red" stroke = "black"/>
</g>
<g>
<polygon points = "96.327, 756.617 70.150, 732.905 75.306, 726.036 116.671, 683.830 151.254, 696.542 162.016, 727.750 162.818, 735.237 138.951, 761.351 "
fill = "red" stroke = "black"/>
</g>
<g>
<polygon points = "607.878, 695.651 504.143, 659.299 504.301, 647.216 512.880, 626.521 574.433, 617.537 626.350, 673.140 "
fill = "red" stroke = "black"/>
</g>
<g>
<polygon points = "684.967, 901.152 708.735, 905.412 685.824, 941.372 679.217, 941.879 "
fill = "red" stroke = "black"/>
</g>
<g>
<polygon points = "857.938, 980.311 871.052, 943.786 931.745, 874.718 980.983, 882.477 867.545, 999.125 "
fill = "red" stroke = "black"/>
</g>
<g>
<polygon points = "292.215, 665.214 293.811, 666.493 247.986, 750.862 244.557, 669.265 248.786, 654.272 "
fill = "red" stroke = "black"/>
</g>
<g>
<polygon points = "640.914, 80.064 602.625, 126.321 590.065, 121.285 574.305, 83.524 "
fill = "red" stroke = "black"/>
</g>
<g>
<polygon points = "909.830, 475.454 884.142, 510.622 820.386, 512.569 824.965, 456.526 863.232, 447.981 "
fill = "red" stroke = "black"/>
</g>
<g>
<polygon points = "574.305, 83.524 590.065, 121.285 536.018, 103.339 523.387, 71.803 "
fill = "red" stroke = "black"/>
</g>
<g>
<polygon points = "388.444, 639.107 403.911, 596.346 408.035, 590.191 440.662, 571.360 481.547, 559.293 512.880, 626.521 504.301, 647.216 "
fill = "red" stroke = "black"/>
</g>
<g>
<polygon points = "26.778, 923.903 64.079, 849.098 77.165, 849.318 134.558, 907.550 123.391, 940.604 74.473, 956.287 "
fill = "red" stroke = "black"/>
</g>
<g>
<polygon points = "401.224, 850.903 444.458, 853.071 445.122, 853.187 456.789, 868.469 434.871, 898.441 359.847, 916.606 360.905, 882.988 374.240, 864.839 "
fill = "red" stroke = "black"/>
</g>
<g>
<polygon points = "739.603, 980.100 727.440, 1000.000 705.081, 1000.000 714.312, 948.609 728.036, 944.072 "
fill = "red" stroke = "black"/>
</g>
<g>
<polygon points = "483.552, 432.349 529.900, 478.369 530.910, 521.657 486.699, 544.597 454.931, 493.370 445.933, 445.779 447.183, 431.956 469.847, 428.163 "
fill = "red" stroke = "black"/>
</g>
<g>
<polygon points = "151.254, 696.542 182.087, 626.044 242.160, 643.997 248.786, 654.272 244.557, 669.265 162.016, 727.750 "
fill = "red" stroke = "black"/>
</g>
<g>
<polygon points = "727.486, 186.924 691.204, 117.640 692.195, 112.059 756.274, 133.074 738.729, 191.779 735.028, 191.974 "
fill = "red" stroke = "black"/>
</g>
<g>
<polygon points = "33.140, 116.353 44.106, 182.255 13.863, 198.068 0.000, 200.105 0.000, 118.105 "
fill = "red" stroke = "black"/>
</g>
<g>
<polygon points = "118.480, 385.233 138.020, 380.755 141.946, 391.476 131.501, 454.234 120.887, 451.162 110.683, 392.473 110.907, 392.009 "
fill = "red" stroke = "black"/>
</g>
<g>
<polygon points = "105.570, 212.485 109.778, 200.692 128.197, 155.442 174.795, 130.689 208.790, 229.371 154.692, 236.786 107.733, 223.522 "
fill = "red" stroke = "black"/>
</g>
<g>
<polygon points = "647.876, 891.681 666.125, 879.120 684.967, 901.152 679.217, 941.879 667.374, 946.633 649.015, 939.962 "
fill = "red" stroke = "black"/>
</g>
<g>
<polygon points = "978.356, 119.047 963.789, 111.057 897.149, 48.644 900.067, 26.547 964.462, 63.944 1000.000, 106.885 1000.000, 109.737 "
fill = "red" stroke = "black"/>
</g>
<g>
<polygon points = "354.208, 485.612 389.931, 485.684 404.007, 514.814 403.522, 515.541 389.714, 524.095 "
fill = "red" stroke = "black"/>
</g>
<g>
<polygon points = "835.759, 772.967 836.113, 725.356 859.444, 711.558 874.015, 719.362 877.183, 758.946 853.153, 790.430 "
fill = "red" stroke = "black"/>
</g>
<g>
<polygon points = "37.554, 546.177 56.096, 623.145 54.700, 625.186 37.543, 634.366 0.000, 634.134 0.000, 532.117 "
fill = "red" stroke = "black"/>
</g>
<g>
<polygon points = "146.619, 599.153 132.575, 521.062 172.850, 539.923 168.174, 604.901 "
fill = "red" stroke = "black"/>
</g>
<g>
<polygon points = "823.105, 723.804 836.113, 725.356 835.759, 772.967 808.884, 775.515 793.056, 749.511 "
fill = "red" stroke = "black"/>
</g>
<g>
<polygon points = "594.534, 797.828 595.967, 802.225 591.405, 807.379 533.126, 822.050 502.413, 771.810 520.547, 735.410 564.413, 737.616 "
fill = "red" stroke = "black"/>
</g>
<g>
<polygon points = "317.759, 759.034 306.287, 748.865 322.322, 688.420 381.147, 666.402 396.606, 689.846 383.117, 725.388 329.059, 763.384 "
fill = "red" stroke = "black"/>
</g>
<g>
<polygon points = "252.922, 181.265 251.675, 182.294 197.868, 109.986 257.711, 77.855 "
fill = "red" stroke = "black"/>
</g>
<g>
<polygon points = "778.875, 521.055 819.191, 514.315 845.607, 592.880 768.157, 559.274 776.435, 523.221 "
fill = "red" stroke = "black"/>
</g>
<g>
<polygon points = "189.242, 501.460 141.330, 492.681 135.331, 458.721 217.305, 480.211 "
fill = "red" stroke = "black"/>
</g>
<g>
<polygon points = "239.770, 762.651 248.141, 756.637 306.287, 748.865 317.759, 759.034 295.544, 845.021 241.493, 852.544 234.089, 843.715 "
fill = "red" stroke = "black"/>
</g>
<g>
<polygon points = "403.911, 596.346 388.444, 639.107 387.035, 640.678 331.152, 607.596 295.907, 556.451 297.964, 551.046 301.473, 547.632 "
fill = "red" stroke = "black"/>
</g>
<g>
<polygon points = "747.163, 437.112 768.702, 412.720 824.965, 456.526 820.386, 512.569 819.191, 514.315 778.875, 521.055 "
fill = "red" stroke = "black"/>
</g>
<g>
<polygon points = "238.929, 509.837 297.964, 551.046 295.907, 556.451 290.229, 561.310 283.201, 566.439 215.541, 564.460 211.022, 544.288 "
fill = "red" stroke = "black"/>
</g>
<g>
<polygon points = "591.543, 810.675 620.545, 863.024 615.904, 881.594 606.982, 884.108 583.159, 871.672 "
fill = "red" stroke = "black"/>
</g>
<g>
<polygon points = "398.744, 47.901 383.891, 44.086 383.767, 37.308 387.266, 0.000 430.424, 0.000 "
fill = "red" stroke = "black"/>
</g>
<g>
<polygon points = "624.764, 741.383 602.457, 706.471 607.878, 695.651 626.350, 673.140 648.256, 669.913 668.763, 687.999 660.885, 769.878 "
fill = "red" stroke = "black"/>
</g>
<g>
<polygon points = "213.722, 311.998 292.170, 336.466 295.271, 354.917 265.242, 382.352 227.993, 369.086 215.171, 359.964 208.494, 317.167 "
fill = "red" stroke = "black"/>
</g>
<g>
<polygon points = "663.591, 642.121 661.889, 581.663 686.225, 552.304 712.246, 607.198 705.430, 632.770 "
fill = "red" stroke = "black"/>
</g>
<g>
<polygon points = "63.159, 490.430 107.428, 451.248 120.887, 451.162 131.501, 454.234 134.601, 456.308 135.331, 458.721 141.330, 492.681 128.563, 515.134 98.987, 522.824 68.900, 508.989 "
fill = "red" stroke = "black"/>
</g>
<g>
<polygon points = "624.255, 318.573 691.203, 321.573 700.813, 340.384 651.677, 389.565 637.207, 392.027 628.362, 392.004 "
fill = "red" stroke = "black"/>
</g>
<g>
<polygon points = "747.889, 49.313 671.351, 65.212 661.856, 59.250 650.020, 34.103 651.033, 0.000 792.525, 0.000 "
fill = "red" stroke = "black"/>
</g>
<g>
<polygon points = "964.462, 63.944 900.067, 26.547 890.486, 0.000 937.315, 0.000 "
fill = "red" stroke = "black"/>
</g>
<g>
<polygon points = "860.305, 279.796 794.100, 271.715 790.101, 250.638 792.341, 244.578 882.761, 241.592 "
fill = "red" stroke = "black"/>
</g>
<g>
<polygon points = "392.889, 951.499 428.925, 946.202 447.343, 959.869 424.989, 1000.000 390.153, 1000.000 "
fill = "red" stroke = "black"/>
</g>
<g>
<polygon points = "220.110, 233.080 224.110, 231.922 265.216, 246.640 303.220, 268.627 313.052, 284.090 292.170, 336.466 213.722, 311.998 "
fill = "red" stroke = "black"/>
</g>
<g>
<polygon points = "199.124, 422.180 227.993, 369.086 265.242, 382.352 247.850, 436.304 244.299, 441.085 231.047, 446.342 199.695, 426.873 "
fill = "red" stroke = "black"/>
</g>
<g>
<polygon points = "74.473, 956.287 123.391, 940.604 177.691, 987.966 182.085, 1000.000 75.218, 1000.000 "
fill = "red" stroke = "black"/>
</g>
<g>
<polygon points = "151.254, 696.542 116.671, 683.830 87.377, 658.750 54.700, 625.186 56.096, 623.145 95.614, 602.290 146.619, 599.153 168.174, 604.901 171.156, 606.786 182.087, 626.044 "
fill = "red" stroke = "black"/>
</g>
<g>
<polygon points = "473.137, 192.214 511.770, 199.804 544.677, 222.324 455.667, 303.330 400.879, 281.736 421.548, 201.630 432.940, 196.899 "
fill = "red" stroke = "black"/>
</g>
<g>
<polygon points = "507.251, 43.839 508.080, 44.349 523.387, 71.803 536.018, 103.339 511.770, 199.804 473.137, 192.214 478.208, 70.799 484.252, 59.618 "
fill = "red" stroke = "black"/>
</g>
<g>
<polygon points = "785.475, 895.349 784.734, 900.660 769.880, 903.851 736.341, 895.423 681.569, 851.156 681.226, 841.362 701.586, 835.099 774.808, 870.992 "
fill = "red" stroke = "black"/>
</g>
<g>
<polygon points = "182.339, 7.404 158.499, 81.808 102.065, 66.663 93.841, 35.903 97.714, 0.000 179.075, 0.000 "
fill = "red" stroke = "black"/>
</g>
<g>
<polygon points = "765.175, 135.721 815.772, 135.271 824.881, 180.724 801.870, 202.333 "
fill = "red" stroke = "black"/>
</g>
<g>
<polygon points = "352.273, 55.875 380.359, 115.955 363.631, 170.267 350.451, 169.567 343.139, 166.089 323.455, 152.452 281.982, 63.924 291.020, 53.050 "
fill = "red" stroke = "black"/>
</g>
<g>
<polygon points = "383.767, 37.308 383.891, 44.086 352.273, 55.875 291.020, 53.050 294.439, 0.000 357.357, 0.000 "
fill = "red" stroke = "black"/>
</g>
<g>
<polygon points = "505.636, 940.478 497.305, 882.952 517.002, 869.966 554.022, 878.438 577.168, 934.977 "
fill = "red" stroke = "black"/>
</g>
<g>
<polygon points = "953.733, 540.993 949.009, 525.411 945.288, 500.708 1000.000, 483.178 1000.000, 547.434 "
fill = "red" stroke = "black"/>
</g>
<g>
<polygon points = "92.106, 202.256 44.106, 182.255 33.140, 116.353 34.792, 115.691 46.913, 114.652 48.982, 116.453 "
fill = "red" stroke = "black"/>
</g>
<g>
<polygon points = "211.022, 544.288 188.522, 525.591 189.242, 501.460 217.305, 480.211 220.699, 478.211 238.929, 509.837 "
fill = "red" stroke = "black"/>
</g>
<g>
<polygon points = "819.191, 514.315 820.386, 512.569 884.142, 510.622 886.990, 539.775 880.685, 605.819 872.196, 611.263 860.068, 614.019 845.607, 592.880 "
fill = "red" stroke = "black"/>
</g>
<g>
<polygon points = "198.145, 940.298 152.175, 902.783 229.647, 903.691 "
fill = "red" stroke = "black"/>
</g>
<g>
<polygon points = "87.377, 658.750 75.306, 726.036 70.150, 732.905 42.375, 725.078 37.543, 634.366 54.700, 625.186 "
fill = "red" stroke = "black"/>
</g>
<g>
<polygon points = "77.165, 849.318 64.079, 849.098 54.637, 835.904 47.836, 813.362 96.327, 756.617 138.951, 761.351 140.243, 814.653 "
fill = "red" stroke = "black"/>
</g>
<g>
<polygon points = "678.795, 501.059 677.551, 500.792 666.976, 497.331 652.863, 483.249 637.207, 392.027 651.677, 389.565 704.993, 460.332 "
fill = "red" stroke = "black"/>
</g>
<g>
<polygon points = "980.983, 882.477 931.745, 874.718 899.396, 846.518 894.741, 823.271 949.278, 785.549 996.636, 765.515 1000.000, 766.120 1000.000, 876.569 "
fill = "red" stroke = "black"/>
</g>
<g>
<polygon points = "455.667, 303.330 481.899, 331.259 442.929, 380.181 399.959, 282.580 400.879, 281.736 "
fill = "red" stroke = "black"/>
</g>
<g>
<polygon points = "339.734, 384.052 334.990, 424.523 247.850, 436.304 265.242, 382.352 295.271, 354.917 "
fill = "red" stroke = "black"/>
</g>
<g>
<polygon points = "615.904, 881.594 647.876, 891.681 649.015, 939.962 624.208, 950.208 600.380, 952.295 592.343, 941.155 606.982, 884.108 "
fill = "red" stroke = "black"/>
</g>
<g>
<polygon points = "507.251, 43.839 484.252, 59.618 399.748, 48.528 399.173, 48.197 398.744, 47.901 430.424, 0.000 500.473, 0.000 "
fill = "red" stroke = "black"/>
</g>
<g>
<polygon points = "932.844, 253.411 923.041, 238.762 966.034, 130.018 978.356, 119.047 1000.000, 109.737 1000.000, 255.448 "
fill = "red" stroke = "black"/>
</g>
<g>
<polygon points = "945.288, 500.708 915.048, 474.691 936.851, 436.137 1000.000, 472.318 1000.000, 483.178 "
fill = "red" stroke = "black"/>
</g>
<g>
<polygon points = "900.067, 26.547 897.149, 48.644 873.668, 76.956 861.903, 79.388 856.725, 67.589 873.332, 0.000 890.486, 0.000 "
fill = "red" stroke = "black"/>
</g>
<g>
<polygon points = "34.422, 51.002 34.792, 115.691 33.140, 116.353 0.000, 118.105 0.000, 29.004 "
fill = "red" stroke = "black"/>
</g>
<g>
<polygon points = "745.169, 756.702 749.604, 745.940 793.056, 749.511 808.884, 775.515 793.789, 793.017 "
fill = "red" stroke = "black"/>
</g>
<g>
<polygon points = "370.558, 374.447 399.567, 282.805 399.959, 282.580 442.929, 380.181 434.916, 408.122 "
fill = "red" stroke = "black"/>
</g>
<g>
<polygon points = "704.993, 460.332 651.677, 389.565 700.813, 340.384 704.014, 341.670 769.026, 407.424 768.702, 412.720 747.163, 437.112 "
fill = "red" stroke = "black"/>
</g>
<g>
<polygon points = "696.772, 265.618 697.788, 231.737 735.028, 191.974 738.729, 191.779 790.105, 223.624 792.341, 244.578 790.101, 250.638 "
fill = "red" stroke = "black"/>
</g>
<g>
<polygon points = "923.041, 238.762 903.700, 234.247 860.686, 178.818 872.263, 158.863 879.049, 151.899 925.809, 135.143 966.034, 130.018 "
fill = "red" stroke = "black"/>
</g>
<g>
<polygon points = "936.851, 436.137 941.187, 422.241 1000.000, 422.767 1000.000, 472.318 "
fill = "red" stroke = "black"/>
</g>
<g>
<polygon points = "352.273, 55.875 383.891, 44.086 398.744, 47.901 399.173, 48.197 386.124, 112.165 380.359, 115.955 "
fill = "red" stroke = "black"/>
</g>
<g>
<polygon points = "662.567, 179.955 691.204, 117.640 727.486, 186.924 "
fill = "red" stroke = "black"/>
</g>
<g>
<polygon points = "650.020, 34.103 508.080, 44.349 507.251, 43.839 500.473, 0.000 651.033, 0.000 "
fill = "red" stroke = "black"/>
</g>
<g>
<polygon points = "459.891, 786.827 445.122, 853.187 444.458, 853.071 391.093, 781.465 397.839, 776.174 434.322, 768.487 "
fill = "red" stroke = "black"/>
</g>
<g>
<polygon points = "70.120, 126.895 119.193, 146.243 128.197, 155.442 109.778, 200.692 "
fill = "red" stroke = "black"/>
</g>
<g>
<polygon points = "177.691, 987.966 123.391, 940.604 134.558, 907.550 145.101, 900.849 152.175, 902.783 198.145, 940.298 "
fill = "red" stroke = "black"/>
</g>
<g>
<polygon points = "659.147, 814.276 681.226, 841.362 681.569, 851.156 666.125, 879.120 647.876, 891.681 615.904, 881.594 620.545, 863.024 "
fill = "red" stroke = "black"/>
</g>
<g>
<polygon points = "652.863, 483.249 666.976, 497.331 654.216, 500.512 577.229, 512.945 589.499, 438.852 "
fill = "red" stroke = "black"/>
</g>
<g>
<polygon points = "57.285, 328.021 67.113, 324.489 118.480, 385.233 110.907, 392.009 56.017, 372.262 "
fill = "red" stroke = "black"/>
</g>
<g>
<polygon points = "473.137, 192.214 432.940, 196.899 430.906, 106.130 478.208, 70.799 "
fill = "red" stroke = "black"/>
</g>
<g>
<polygon points = "872.263, 158.863 825.459, 117.719 828.614, 106.491 851.433, 96.912 879.049, 151.899 "
fill = "red" stroke = "black"/>
</g>
<g>
<polygon points = "483.552, 432.349 580.617, 419.345 580.679, 420.041 529.900, 478.369 "
fill = "red" stroke = "black"/>
</g>
<g>
<polygon points = "502.413, 771.810 459.891, 786.827 434.322, 768.487 432.116, 708.770 497.222, 692.500 520.547, 735.410 "
fill = "red" stroke = "black"/>
</g>
<g>
<polygon points = "387.035, 640.678 381.147, 666.402 322.322, 688.420 293.811, 666.493 292.215, 665.214 301.028, 647.136 331.152, 607.596 "
fill = "red" stroke = "black"/>
</g>
<g>
<polygon points = "87.377, 658.750 116.671, 683.830 75.306, 726.036 "
fill = "red" stroke = "black"/>
</g>
<g>
<polygon points = "884.142, 510.622 909.830, 475.454 915.048, 474.691 945.288, 500.708 949.009, 525.411 886.990, 539.775 "
fill = "red" stroke = "black"/>
</g>
<g>
<polygon points = "188.251, 382.145 215.171, 359.964 227.993, 369.086 199.124, 422.180 "
fill = "red" stroke = "black"/>
</g>
<g>
<polygon points = "265.216, 246.640 299.086, 202.523 343.139, 166.089 350.451, 169.567 303.220, 268.627 "
fill = "red" stroke = "black"/>
</g>
<g>
<polygon points = "555.586, 314.083 548.023, 223.775 589.042, 208.511 641.656, 255.439 614.816, 313.972 "
fill = "red" stroke = "black"/>
</g>
<g>
<polygon points = "965.079, 329.588 929.099, 279.095 932.844, 253.411 1000.000, 255.448 1000.000, 335.320 "
fill = "red" stroke = "black"/>
</g>
<g>
<polygon points = "517.002, 869.966 533.126, 822.050 591.405, 807.379 591.543, 810.675 583.159, 871.672 554.022, 878.438 "
fill = "red" stroke = "black"/>
</g>
<g>
<polygon points = "734.319, 768.778 745.169, 756.702 793.789, 793.017 793.678, 796.825 786.404, 807.502 764.883, 827.560 740.564, 807.975 "
fill = "red" stroke = "black"/>
</g>
<g>
<polygon points = "242.160, 643.997 283.201, 566.439 290.229, 561.310 301.028, 647.136 292.215, 665.214 248.786, 654.272 "
fill = "red" stroke = "black"/>
</g>
<g>
<polygon points = "773.268, 651.118 705.430, 632.770 712.246, 607.198 755.378, 602.795 776.314, 647.249 "
fill = "red" stroke = "black"/>
</g>
<g>
<polygon points = "47.836, 813.362 54.637, 835.904 0.000, 842.305 0.000, 766.945 "
fill = "red" stroke = "black"/>
</g>
<g>
<polygon points = "252.922, 181.265 257.711, 77.855 272.311, 66.359 281.982, 63.924 323.455, 152.452 "
fill = "red" stroke = "black"/>
</g>
<g>
<polygon points = "67.020, 233.202 13.863, 198.068 44.106, 182.255 92.106, 202.256 105.570, 212.485 107.733, 223.522 105.494, 225.970 "
fill = "red" stroke = "black"/>
</g>
<g>
<polygon points = "454.931, 493.370 404.007, 514.814 389.931, 485.684 445.933, 445.779 "
fill = "red" stroke = "black"/>
</g>
<g>
<polygon points = "97.565, 258.587 85.006, 312.678 67.113, 324.489 57.285, 328.021 0.000, 308.795 0.000, 281.232 "
fill = "red" stroke = "black"/>
</g>
<g>
<polygon points = "899.396, 846.518 879.216, 885.049 832.443, 844.206 845.683, 825.770 860.083, 815.188 894.741, 823.271 "
fill = "red" stroke = "black"/>
</g>
<g>
<polygon points = "13.863, 198.068 67.020, 233.202 0.000, 265.425 0.000, 200.105 "
fill = "red" stroke = "black"/>
</g>
<g>
<polygon points = "594.534, 797.828 564.413, 737.616 602.457, 706.471 624.764, 741.383 "
fill = "red" stroke = "black"/>
</g>
<g>
<polygon points = "399.173, 48.197 399.748, 48.528 413.132, 99.314 386.124, 112.165 "
fill = "red" stroke = "black"/>
</g>
<g>
<polygon points = "26.778, 923.903 74.473, 956.287 75.218, 1000.000 0.000, 1000.000 0.000, 929.130 "
fill = "red" stroke = "black"/>
</g>
<g>
<polygon points = "600.380, 952.295 624.208, 950.208 647.430, 1000.000 582.932, 1000.000 "
fill = "red" stroke = "black"/>
</g>
<g>
<polygon points = "734.319, 768.778 740.564, 807.975 701.586, 835.099 681.226, 841.362 659.147, 814.276 654.483, 804.014 665.379, 781.688 697.636, 770.273 "
fill = "red" stroke = "black"/>
</g>
<g>
<polygon points = "128.563, 515.134 141.330, 492.681 189.242, 501.460 188.522, 525.591 172.850, 539.923 132.575, 521.062 "
fill = "red" stroke = "black"/>
</g>
<g>
<polygon points = "377.506, 543.208 388.154, 527.545 426.706, 553.661 440.662, 571.360 408.035, 590.191 "
fill = "red" stroke = "black"/>
</g>
<g>
<polygon points = "879.216, 885.049 871.052, 943.786 857.938, 980.311 833.919, 959.217 784.734, 900.660 785.475, 895.349 829.944, 846.354 832.443, 844.206 "
fill = "red" stroke = "black"/>
</g>
<g>
<polygon points = "872.263, 158.863 860.686, 178.818 824.881, 180.724 815.772, 135.271 825.459, 117.719 "
fill = "red" stroke = "black"/>
</g>
<g>
<polygon points = "241.683, 895.851 241.493, 852.544 295.544, 845.021 299.810, 846.262 305.646, 851.953 316.505, 943.557 294.902, 960.475 "
fill = "red" stroke = "black"/>
</g>
<g>
<polygon points = "648.256, 669.913 663.591, 642.121 705.430, 632.770 773.268, 651.118 765.174, 677.017 745.558, 699.237 691.950, 695.552 668.763, 687.999 "
fill = "red" stroke = "black"/>
</g>
<g>
<polygon points = "879.216, 885.049 899.396, 846.518 931.745, 874.718 871.052, 943.786 "
fill = "red" stroke = "black"/>
</g>
<g>
<polygon points = "856.725, 67.589 814.261, 38.325 797.656, 0.000 873.332, 0.000 "
fill = "red" stroke = "black"/>
</g>
<g>
<polygon points = "794.100, 271.715 860.305, 279.796 865.211, 350.422 829.978, 348.489 795.047, 289.714 "
fill = "red" stroke = "black"/>
</g>
<g>
<polygon points = "119.193, 146.243 70.120, 126.895 48.982, 116.453 46.913, 114.652 99.662, 70.244 "
fill = "red" stroke = "black"/>
</g>
<g>
<polygon points = "455.667, 303.330 544.677, 222.324 548.023, 223.775 555.586, 314.083 544.739, 338.450 543.288, 338.835 481.899, 331.259 "
fill = "red" stroke = "black"/>
</g>
<g>
<polygon points = "128.197, 155.442 119.193, 146.243 99.662, 70.244 102.065, 66.663 158.499, 81.808 184.537, 112.667 174.795, 130.689 "
fill = "red" stroke = "black"/>
</g>
<g>
<polygon points = "654.483, 804.014 659.147, 814.276 620.545, 863.024 591.543, 810.675 591.405, 807.379 595.967, 802.225 "
fill = "red" stroke = "black"/>
</g>
<g>
<polygon points = "949.278, 785.549 877.183, 758.946 874.015, 719.362 942.655, 718.832 996.636, 765.515 "
fill = "red" stroke = "black"/>
</g>
<g>
<polygon points = "141.946, 391.476 138.020, 380.755 151.928, 360.981 152.127, 360.958 188.251, 382.145 199.124, 422.180 199.695, 426.873 185.351, 428.793 "
fill = "red" stroke = "black"/>
</g>
<g>
<polygon points = "387.035, 640.678 388.444, 639.107 504.301, 647.216 504.143, 659.299 497.222, 692.500 432.116, 708.770 396.606, 689.846 381.147, 666.402 "
fill = "red" stroke = "black"/>
</g>
<g>
<polygon points = "92.106, 202.256 48.982, 116.453 70.120, 126.895 109.778, 200.692 105.570, 212.485 "
fill = "red" stroke = "black"/>
</g>
<g>
<polygon points = "814.261, 38.325 806.674, 89.904 777.092, 89.816 747.889, 49.313 792.525, 0.000 797.656, 0.000 "
fill = "red" stroke = "black"/>
</g>
<g>
<polygon points = "929.138, 387.337 926.881, 384.602 965.079, 329.588 1000.000, 335.320 1000.000, 375.093 "
fill = "red" stroke = "black"/>
</g>
<g>
<polygon points = "749.604, 745.940 745.558, 699.237 765.174, 677.017 823.105, 723.804 793.056, 749.511 "
fill = "red" stroke = "black"/>
</g>
<g>
<polygon points = "678.795, 501.059 704.993, 460.332 747.163, 437.112 778.875, 521.055 776.435, 523.221 683.761, 512.571 "
fill = "red" stroke = "black"/>
</g>
<g>
<polygon points = "555.586, 314.083 614.816, 313.972 624.255, 318.573 628.362, 392.004 585.692, 402.553 544.739, 338.450 "
fill = "red" stroke = "black"/>
</g>
<g>
<polygon points = "591.874, 569.779 587.900, 561.636 654.216, 500.512 666.976, 497.331 677.551, 500.792 "
fill = "red" stroke = "black"/>
</g>
<g>
<polygon points = "587.900, 561.636 564.825, 525.031 577.229, 512.945 654.216, 500.512 "
fill = "red" stroke = "black"/>
</g>
<g>
<polygon points = "153.649, 298.691 154.692, 236.786 208.790, 229.371 220.110, 233.080 213.722, 311.998 208.494, 317.167 198.159, 319.391 "
fill = "red" stroke = "black"/>
</g>
<g>
<polygon points = "370.558, 374.447 339.734, 384.052 295.271, 354.917 292.170, 336.466 313.052, 284.090 399.567, 282.805 "
fill = "red" stroke = "black"/>
</g>
<g>
<polygon points = "454.931, 493.370 486.699, 544.597 481.547, 559.293 440.662, 571.360 426.706, 553.661 403.522, 515.541 404.007, 514.814 "
fill = "red" stroke = "black"/>
</g>
<g>
<polygon points = "498.279, 962.695 505.636, 940.478 577.168, 934.977 592.343, 941.155 600.380, 952.295 582.932, 1000.000 509.722, 1000.000 "
fill = "red" stroke = "black"/>
</g>
<g>
<polygon points = "661.889, 581.663 594.269, 578.017 591.874, 569.779 677.551, 500.792 678.795, 501.059 683.761, 512.571 686.407, 551.962 686.225, 552.304 "
fill = "red" stroke = "black"/>
</g>
<g>
<polygon points = "299.086, 202.523 265.216, 246.640 224.110, 231.922 245.767, 194.213 "
fill = "red" stroke = "black"/>
</g>
<g>
<polygon points = "67.020, 233.202 105.494, 225.970 97.565, 258.587 0.000, 281.232 0.000, 265.425 "
fill = "red" stroke = "black"/>
</g>
<g>
<polygon points = "134.558, 907.550 77.165, 849.318 140.243, 814.653 173.609, 841.495 145.101, 900.849 "
fill = "red" stroke = "black"/>
</g>
<g>
<polygon points = "650.020, 34.103 661.856, 59.250 640.914, 80.064 574.305, 83.524 523.387, 71.803 508.080, 44.349 "
fill = "red" stroke = "black"/>
</g>
<g>
<polygon points = "43.839, 413.090 73.749, 420.509 107.428, 451.248 63.159, 490.430 0.000, 443.400 0.000, 442.902 "
fill = "red" stroke = "black"/>
</g>
<g>
<polygon points = "536.018, 103.339 590.065, 121.285 602.625, 126.321 597.463, 198.516 589.042, 208.511 548.023, 223.775 544.677, 222.324 511.770, 199.804 "
fill = "red" stroke = "black"/>
</g>
<g>
<polygon points = "765.174, 677.017 773.268, 651.118 776.314, 647.249 853.098, 621.516 859.444, 711.558 836.113, 725.356 823.105, 723.804 "
fill = "red" stroke = "black"/>
</g>
<g>
<polygon points = "377.506, 543.208 408.035, 590.191 403.911, 596.346 301.473, 547.632 309.817, 535.898 "
fill = "red" stroke = "black"/>
</g>
<g>
<polygon points = "964.462, 63.944 937.315, 0.000 1000.000, 0.000 1000.000, 106.885 "
fill = "red" stroke = "black"/>
</g>
<g>
<polygon points = "926.881, 384.602 929.138, 387.337 941.187, 422.241 936.851, 436.137 915.048, 474.691 909.830, 475.454 863.232, 447.981 879.883, 366.120 "
fill = "red" stroke = "black"/>
</g>
<g>
<polygon points = "505.636, 940.478 498.279, 962.695 447.343, 959.869 428.925, 946.202 434.871, 898.441 456.789, 868.469 497.305, 882.952 "
fill = "red" stroke = "black"/>
</g>
<g>
<polygon points = "299.086, 202.523 245.767, 194.213 251.675, 182.294 252.922, 181.265 323.455, 152.452 343.139, 166.089 "
fill = "red" stroke = "black"/>
</g>
<g>
<polygon points = "700.813, 340.384 691.203, 321.573 690.230, 273.159 696.772, 265.618 790.101, 250.638 794.100, 271.715 795.047, 289.714 704.014, 341.670 "
fill = "red" stroke = "black"/>
</g>
<g>
<polygon points = "322.322, 688.420 306.287, 748.865 248.141, 756.637 247.986, 750.862 293.811, 666.493 "
fill = "red" stroke = "black"/>
</g>
<g>
<polygon points = "747.889, 49.313 777.092, 89.816 758.429, 132.507 756.274, 133.074 692.195, 112.059 671.351, 65.212 "
fill = "red" stroke = "black"/>
</g>
<g>
<polygon points = "784.734, 900.660 833.919, 959.217 739.603, 980.100 728.036, 944.072 769.880, 903.851 "
fill = "red" stroke = "black"/>
</g>
<g>
<polygon points = "662.567, 179.955 727.486, 186.924 735.028, 191.974 697.788, 231.737 660.436, 182.146 "
fill = "red" stroke = "black"/>
</g>
<g>
<polygon points = "738.729, 191.779 756.274, 133.074 758.429, 132.507 765.175, 135.721 801.870, 202.333 790.105, 223.624 "
fill = "red" stroke = "black"/>
</g>
<g>
<polygon points = "937.560, 699.561 872.196, 611.263 880.685, 605.819 923.799, 597.282 969.775, 619.331 "
fill = "red" stroke = "black"/>
</g>
<g>
<polygon points = "833.919, 959.217 857.938, 980.311 867.545, 999.125 867.769, 1000.000 727.440, 1000.000 739.603, 980.100 "
fill = "red" stroke = "black"/>
</g>
<g>
<polygon points = "937.560, 699.561 942.655, 718.832 874.015, 719.362 859.444, 711.558 853.098, 621.516 860.068, 614.019 872.196, 611.263 "
fill = "red" stroke = "black"/>
</g>
<g>
<polygon points = "923.041, 238.762 932.844, 253.411 929.099, 279.095 866.802, 350.811 865.211, 350.422 860.305, 279.796 882.761, 241.592 903.700, 234.247 "
fill = "red" stroke = "black"/>
</g>
<g>
<polygon points = "654.483, 804.014 595.967, 802.225 594.534, 797.828 624.764, 741.383 660.885, 769.878 665.379, 781.688 "
fill = "red" stroke = "black"/>
</g>
<g>
<polygon points = "131.501, 454.234 141.946, 391.476 185.351, 428.793 134.601, 456.308 "
fill = "red" stroke = "black"/>
</g>
<g>
<polygon points = "177.691, 987.966 198.145, 940.298 229.647, 903.691 241.683, 895.851 294.902, 960.475 289.252, 1000.000 182.085, 1000.000 "
fill = "red" stroke = "black"/>
</g>
<g>
<polygon points = "151.928, 360.981 123.000, 322.693 153.649, 298.691 198.159, 319.391 152.127, 360.958 "
fill = "red" stroke = "black"/>
</g>
<g>
<polygon points = "128.563, 515.134 132.575, 521.062 146.619, 599.153 95.614, 602.290 98.987, 522.824 "
fill = "red" stroke = "black"/>
</g>
</svg>
