<svg xmlns = "http://www.w3.org/2000/svg" width = "1000" height = "1000">
<g>
<polygon points = "150.155, 415.010 147.742, 413.958 195.223, 271.440 266.890, 297.910 290.117, 391.548 "
fill = "red" stroke = "black"/>
</g>
<g>
<polygon points = "477.663, 100.940 412.752, 237.770 388.382, 235.079 366.075, 208.256 369.572, 66.686 451.415, 47.389 "
fill = "red" stroke = "black"/>
</g>
<g>
<polygon points = "610.982, 841.712 611.217, 829.086 676.425, 684.133 746.026, 683.319 753.703, 696.819 745.200, 816.014 655.734, 859.575 "
fill = "red" stroke = "black"/>
</g>
<g>
<polygon points = "155.538, 910.268 265.389, 839.283 272.847, 838.747 322.677, 906.652 316.104, 921.926 169.451, 951.162 "
fill = "red" stroke = "black"/>
</g>
<g>
<polygon points = "310.286, 571.354 362.611, 501.356 447.528, 463.910 482.825, 488.138 526.753, 661.891 474.865, 677.931 341.981, 673.859 292.888, 612.468 "
fill = "red" stroke = "black"/>
</g>
<g>
<polygon points = "150.155, 415.010 290.117, 391.548 362.611, 501.356 310.286, 571.354 "
fill = "red" stroke = "black"/>
</g>
<g>
<polygon points = "155.538, 910.268 108.464, 858.053 71.005, 761.225 163.505, 709.500 265.389, 839.283 "
fill = "red" stroke = "black"/>
</g>
<g>
<polygon points = "879.725, 765.216 897.551, 699.872 1000.000, 780.631 1000.000, 808.349 "
fill = "red" stroke = "black"/>
</g>
<g>
<polygon points = "85.660, 424.176 106.165, 428.575 129.769, 519.822 0.000, 547.558 0.000, 534.655 "
fill = "red" stroke = "black"/>
</g>
<g>
<polygon points = "676.425, 684.133 641.887, 615.403 656.163, 598.791 753.590, 570.867 783.771, 622.915 746.026, 683.319 "
fill = "red" stroke = "black"/>
</g>
<g>
<polygon points = "71.005, 761.225 108.464, 858.053 0.000, 960.070 0.000, 737.920 "
fill = "red" stroke = "black"/>
</g>
<g>
<polygon points = "168.142, 0.000 226.765, 0.000 275.712, 74.741 275.615, 117.603 164.105, 236.381 54.706, 200.382 "
fill = "red" stroke = "black"/>
</g>
<g>
<polygon points = "170.070, 567.858 0.000, 591.392 0.000, 547.558 129.769, 519.822 "
fill = "red" stroke = "black"/>
</g>
<g>
<polygon points = "322.677, 906.652 272.847, 838.747 356.985, 740.245 437.741, 847.396 "
fill = "red" stroke = "black"/>
</g>
<g>
<polygon points = "641.887, 615.403 676.425, 684.133 611.217, 829.086 540.248, 666.479 623.126, 614.912 "
fill = "red" stroke = "black"/>
</g>
<g>
<polygon points = "851.147, 201.773 924.162, 145.629 968.714, 192.382 930.009, 228.137 "
fill = "red" stroke = "black"/>
</g>
<g>
<polygon points = "897.551, 699.872 886.960, 634.305 1000.000, 544.071 1000.000, 780.631 "
fill = "red" stroke = "black"/>
</g>
<g>
<polygon points = "803.583, 322.182 829.287, 377.635 685.309, 431.139 615.044, 345.769 658.851, 329.361 "
fill = "red" stroke = "black"/>
</g>
<g>
<polygon points = "451.415, 47.389 455.544, 0.000 656.519, 0.000 576.738, 119.165 477.663, 100.940 "
fill = "red" stroke = "black"/>
</g>
<g>
<polygon points = "839.576, 951.216 833.390, 1000.000 691.622, 1000.000 676.995, 894.844 "
fill = "red" stroke = "black"/>
</g>
<g>
<polygon points = "369.572, 66.686 275.712, 74.741 226.765, 0.000 455.544, 0.000 451.415, 47.389 "
fill = "red" stroke = "black"/>
</g>
<g>
<polygon points = "558.739, 312.949 615.044, 345.769 685.309, 431.139 676.761, 456.383 648.282, 481.256 523.610, 499.226 482.825, 488.138 447.528, 463.910 494.572, 332.102 "
fill = "red" stroke = "black"/>
</g>
<g>
<polygon points = "129.769, 519.822 106.165, 428.575 147.742, 413.958 150.155, 415.010 310.286, 571.354 292.888, 612.468 264.538, 621.011 170.070, 567.858 "
fill = "red" stroke = "black"/>
</g>
<g>
<polygon points = "791.771, 812.891 814.106, 721.377 827.562, 715.416 878.436, 765.555 818.181, 820.904 "
fill = "red" stroke = "black"/>
</g>
<g>
<polygon points = "0.000, 331.422 85.660, 424.176 0.000, 534.655 "
fill = "red" stroke = "black"/>
</g>
<g>
<polygon points = "513.309, 883.140 518.991, 879.822 610.982, 841.712 655.734, 859.575 676.995, 894.844 691.622, 1000.000 487.032, 1000.000 "
fill = "red" stroke = "black"/>
</g>
<g>
<polygon points = "587.071, 267.340 588.238, 137.554 770.422, 169.478 775.886, 198.151 774.244, 203.977 "
fill = "red" stroke = "black"/>
</g>
<g>
<polygon points = "930.009, 228.137 957.764, 435.549 912.298, 426.475 829.287, 377.635 803.583, 322.182 776.179, 218.026 774.244, 203.977 775.886, 198.151 851.147, 201.773 "
fill = "red" stroke = "black"/>
</g>
<g>
<polygon points = "163.505, 709.500 264.538, 621.011 292.888, 612.468 341.981, 673.859 356.985, 740.245 272.847, 838.747 265.389, 839.283 "
fill = "red" stroke = "black"/>
</g>
<g>
<polygon points = "777.648, 129.554 783.723, 78.417 927.074, 96.891 923.745, 142.850 "
fill = "red" stroke = "black"/>
</g>
<g>
<polygon points = "494.572, 332.102 412.752, 237.770 477.663, 100.940 576.738, 119.165 588.238, 137.554 587.071, 267.340 558.739, 312.949 "
fill = "red" stroke = "black"/>
</g>
<g>
<polygon points = "648.282, 481.256 676.761, 456.383 757.744, 553.584 753.590, 570.867 656.163, 598.791 "
fill = "red" stroke = "black"/>
</g>
<g>
<polygon points = "170.070, 567.858 264.538, 621.011 163.505, 709.500 71.005, 761.225 0.000, 737.920 0.000, 591.392 "
fill = "red" stroke = "black"/>
</g>
<g>
<polygon points = "195.223, 271.440 147.742, 413.958 106.165, 428.575 85.660, 424.176 0.000, 331.422 0.000, 211.793 54.706, 200.382 164.105, 236.381 "
fill = "red" stroke = "black"/>
</g>
<g>
<polygon points = "369.572, 66.686 366.075, 208.256 275.615, 117.603 275.712, 74.741 "
fill = "red" stroke = "black"/>
</g>
<g>
<polygon points = "558.739, 312.949 587.071, 267.340 774.244, 203.977 776.179, 218.026 658.851, 329.361 615.044, 345.769 "
fill = "red" stroke = "black"/>
</g>
<g>
<polygon points = "886.960, 634.305 897.551, 699.872 879.725, 765.216 878.436, 765.555 827.562, 715.416 871.896, 638.262 "
fill = "red" stroke = "black"/>
</g>
<g>
<polygon points = "167.781, 1000.000 169.451, 951.162 316.104, 921.926 341.723, 1000.000 "
fill = "red" stroke = "black"/>
</g>
<g>
<polygon points = "818.181, 820.904 882.966, 903.160 839.576, 951.216 676.995, 894.844 655.734, 859.575 745.200, 816.014 791.771, 812.891 "
fill = "red" stroke = "black"/>
</g>
<g>
<polygon points = "266.890, 297.910 195.223, 271.440 164.105, 236.381 275.615, 117.603 366.075, 208.256 388.382, 235.079 "
fill = "red" stroke = "black"/>
</g>
<g>
<polygon points = "656.519, 0.000 766.514, 0.000 783.723, 78.417 777.648, 129.554 770.422, 169.478 588.238, 137.554 576.738, 119.165 "
fill = "red" stroke = "black"/>
</g>
<g>
<polygon points = "827.562, 715.416 814.106, 721.377 753.703, 696.819 746.026, 683.319 783.771, 622.915 871.896, 638.262 "
fill = "red" stroke = "black"/>
</g>
<g>
<polygon points = "658.851, 329.361 776.179, 218.026 803.583, 322.182 "
fill = "red" stroke = "black"/>
</g>
<g>
<polygon points = "0.000, 0.000 168.142, 0.000 54.706, 200.382 0.000, 211.793 "
fill = "red" stroke = "black"/>
</g>
<g>
<polygon points = "1000.000, 0.000 1000.000, 51.981 927.074, 96.891 783.723, 78.417 766.514, 0.000 "
fill = "red" stroke = "black"/>
</g>
<g>
<polygon points = "1000.000, 544.071 886.960, 634.305 871.896, 638.262 783.771, 622.915 753.590, 570.867 757.744, 553.584 912.298, 426.475 957.764, 435.549 1000.000, 455.942 "
fill = "red" stroke = "black"/>
</g>
<g>
<polygon points = "676.761, 456.383 685.309, 431.139 829.287, 377.635 912.298, 426.475 757.744, 553.584 "
fill = "red" stroke = "black"/>
</g>
<g>
<polygon points = "924.162, 145.629 851.147, 201.773 775.886, 198.151 770.422, 169.478 777.648, 129.554 923.745, 142.850 "
fill = "red" stroke = "black"/>
</g>
<g>
<polygon points = "833.390, 1000.000 839.576, 951.216 882.966, 903.160 1000.000, 889.847 1000.000, 1000.000 "
fill = "red" stroke = "black"/>
</g>
<g>
<polygon points = "540.248, 666.479 611.217, 829.086 610.982, 841.712 518.991, 879.822 474.865, 677.931 526.753, 661.891 "
fill = "red" stroke = "black"/>
</g>
<g>
<polygon points = "1000.000, 808.349 1000.000, 889.847 882.966, 903.160 818.181, 820.904 878.436, 765.555 879.725, 765.216 "
fill = "red" stroke = "black"/>
</g>
<g>
<polygon points = "1000.000, 455.942 957.764, 435.549 930.009, 228.137 968.714, 192.382 1000.000, 185.266 "
fill = "red" stroke = "black"/>
</g>
<g>
<polygon points = "513.309, 883.140 437.741, 847.396 356.985, 740.245 341.981, 673.859 474.865, 677.931 518.991, 879.822 "
fill = "red" stroke = "black"/>
</g>
<g>
<polygon points = "791.771, 812.891 745.200, 816.014 753.703, 696.819 814.106, 721.377 "
fill = "red" stroke = "black"/>
</g>
<g>
<polygon points = "513.309, 883.140 487.032, 1000.000 341.723, 1000.000 316.104, 921.926 322.677, 906.652 437.741, 847.396 "
fill = "red" stroke = "black"/>
</g>
<g>
<polygon points = "0.000, 960.070 108.464, 858.053 155.538, 910.268 169.451, 951.162 167.781, 1000.000 0.000, 1000.000 "
fill = "red" stroke = "black"/>
</g>
<g>
<polygon points = "924.162, 145.629 923.745, 142.850 927.074, 96.891 1000.000, 51.981 1000.000, 185.266 968.714, 192.382 "
fill = "red" stroke = "black"/>
</g>
<g>
<polygon points = "412.752, 237.770 494.572, 332.102 447.528, 463.910 362.611, 501.356 290.117, 391.548 266.890, 297.910 388.382, 235.079 "
fill = "red" stroke = "black"/>
</g>
<g>
<polygon points = "526.753, 661.891 482.825, 488.138 523.610, 499.226 623.126, 614.912 540.248, 666.479 "
fill = "red" stroke = "black"/>
</g>
<g>
<polygon points = "641.887, 615.403 623.126, 614.912 523.610, 499.226 648.282, 481.256 656.163, 598.791 "
fill = "red" stroke = "black"/>
</g>
</svg>
