<svg xmlns = "http://www.w3.org/2000/svg" width = "1000" height = "1000">
<g>
<polygon points = "835.092, 552.306 885.461, 564.841 899.480, 590.661 853.798, 640.917 846.827, 639.721 835.047, 637.325 "
fill = "red" stroke = "black"/>
</g>
<g>
<polygon points = "817.881, 213.323 732.430, 213.973 740.937, 141.154 761.577, 134.357 791.159, 140.398 "
fill = "red" stroke = "black"/>
</g>
<g>
<polygon points = "955.882, 799.863 917.296, 816.569 888.719, 783.387 894.297, 737.134 897.626, 729.951 901.145, 726.749 930.084, 722.654 940.040, 727.834 955.286, 792.098 "
fill = "red" stroke = "black"/>
</g>
<g>
<polygon points = "336.675, 263.006 313.135, 240.236 315.804, 203.802 357.427, 211.852 358.409, 219.757 351.378, 254.984 "
fill = "red" stroke = "black"/>
</g>
<g>
<polygon points = "271.057, 452.225 233.467, 422.838 248.851, 401.855 289.742, 394.449 292.323, 395.049 318.654, 434.783 318.586, 438.521 "
fill = "red" stroke = "black"/>
</g>
<g>
<polygon points = "440.945, 342.057 462.148, 322.022 528.031, 381.606 498.550, 393.219 426.710, 381.525 "
fill = "red" stroke = "black"/>
</g>
<g>
<polygon points = "444.106, 482.047 460.606, 517.085 440.735, 544.193 380.576, 551.266 308.384, 506.595 321.365, 472.963 426.065, 457.723 "
fill = "red" stroke = "black"/>
</g>
<g>
<polygon points = "985.845, 153.674 974.842, 149.204 947.321, 121.441 947.642, 83.648 954.482, 80.209 "
fill = "red" stroke = "black"/>
</g>
<g>
<polygon points = "700.801, 288.205 698.945, 301.359 649.349, 325.159 576.994, 308.414 607.423, 258.821 651.589, 262.720 "
fill = "red" stroke = "black"/>
</g>
<g>
<polygon points = "162.090, 442.876 114.673, 381.345 151.161, 350.736 156.372, 355.424 172.394, 416.911 174.728, 440.979 "
fill = "red" stroke = "black"/>
</g>
<g>
<polygon points = "28.905, 669.848 83.598, 713.605 84.553, 718.112 23.108, 804.266 0.000, 813.945 0.000, 652.660 "
fill = "red" stroke = "black"/>
</g>
<g>
<polygon points = "179.133, 212.435 152.593, 224.500 84.286, 149.492 123.445, 154.803 "
fill = "red" stroke = "black"/>
</g>
<g>
<polygon points = "129.013, 610.908 111.563, 555.682 115.179, 547.610 134.564, 547.697 178.447, 586.605 178.470, 590.739 141.433, 616.563 "
fill = "red" stroke = "black"/>
</g>
<g>
<polygon points = "210.997, 867.650 105.585, 929.971 101.518, 905.625 148.975, 832.463 210.683, 858.867 "
fill = "red" stroke = "black"/>
</g>
<g>
<polygon points = "955.286, 792.098 940.040, 727.834 1000.000, 720.798 1000.000, 788.666 "
fill = "red" stroke = "black"/>
</g>
<g>
<polygon points = "497.809, 198.788 486.000, 167.487 498.661, 104.028 511.393, 110.258 531.262, 193.207 500.408, 199.366 "
fill = "red" stroke = "black"/>
</g>
<g>
<polygon points = "635.890, 702.268 598.508, 719.637 559.766, 682.796 612.854, 668.619 623.851, 673.801 "
fill = "red" stroke = "black"/>
</g>
<g>
<polygon points = "675.717, 463.727 635.188, 507.705 622.636, 494.137 625.451, 440.480 654.385, 432.986 "
fill = "red" stroke = "black"/>
</g>
<g>
<polygon points = "498.043, 81.322 495.718, 83.890 476.660, 62.795 444.768, 19.213 433.667, 0.000 504.269, 0.000 "
fill = "red" stroke = "black"/>
</g>
<g>
<polygon points = "284.266, 178.089 287.387, 174.946 295.373, 179.532 315.804, 203.802 313.135, 240.236 295.659, 246.871 271.897, 240.918 "
fill = "red" stroke = "black"/>
</g>
<g>
<polygon points = "562.772, 195.853 552.662, 228.706 513.096, 241.444 500.408, 199.366 531.262, 193.207 "
fill = "red" stroke = "black"/>
</g>
<g>
<polygon points = "367.557, 78.873 375.975, 63.144 417.479, 89.322 424.772, 98.164 410.710, 147.117 388.411, 146.597 "
fill = "red" stroke = "black"/>
</g>
<g>
<polygon points = "277.945, 598.223 327.186, 617.752 339.866, 659.112 317.205, 687.455 286.886, 694.769 250.576, 641.237 "
fill = "red" stroke = "black"/>
</g>
<g>
<polygon points = "833.054, 128.314 791.159, 140.398 761.577, 134.357 787.872, 0.000 801.119, 0.000 "
fill = "red" stroke = "black"/>
</g>
<g>
<polygon points = "82.607, 114.592 65.229, 134.424 11.418, 0.000 63.960, 0.000 "
fill = "red" stroke = "black"/>
</g>
<g>
<polygon points = "523.011, 887.953 531.998, 924.433 503.380, 903.272 "
fill = "red" stroke = "black"/>
</g>
<g>
<polygon points = "150.364, 346.534 222.021, 306.201 201.293, 360.089 156.372, 355.424 151.161, 350.736 "
fill = "red" stroke = "black"/>
</g>
<g>
<polygon points = "930.084, 722.654 901.145, 726.749 869.317, 691.961 853.798, 640.917 899.480, 590.661 942.382, 613.404 "
fill = "red" stroke = "black"/>
</g>
<g>
<polygon points = "29.658, 973.962 103.113, 946.112 104.997, 949.234 112.362, 1000.000 35.570, 1000.000 "
fill = "red" stroke = "black"/>
</g>
<g>
<polygon points = "426.012, 959.052 392.553, 931.842 405.560, 873.273 406.137, 872.748 434.245, 877.721 436.029, 878.284 484.900, 912.586 494.093, 950.552 484.103, 981.554 "
fill = "red" stroke = "black"/>
</g>
<g>
<polygon points = "281.319, 49.236 280.702, 50.615 274.741, 55.968 189.752, 46.013 152.130, 5.537 151.436, 0.000 265.214, 0.000 "
fill = "red" stroke = "black"/>
</g>
<g>
<polygon points = "947.379, 150.916 894.709, 169.165 863.614, 123.908 "
fill = "red" stroke = "black"/>
</g>
<g>
<polygon points = "272.520, 521.752 208.228, 467.303 203.021, 451.592 233.467, 422.838 271.057, 452.225 298.364, 509.779 "
fill = "red" stroke = "black"/>
</g>
<g>
<polygon points = "416.586, 255.534 386.792, 266.155 351.378, 254.984 358.409, 219.757 "
fill = "red" stroke = "black"/>
</g>
<g>
<polygon points = "470.750, 292.026 509.183, 284.944 550.060, 293.282 573.785, 309.697 567.302, 337.130 558.834, 357.288 530.195, 381.947 528.031, 381.606 462.148, 322.022 "
fill = "red" stroke = "black"/>
</g>
<g>
<polygon points = "484.103, 981.554 494.093, 950.552 541.437, 936.700 576.317, 937.302 576.389, 941.394 515.543, 1000.000 490.952, 1000.000 "
fill = "red" stroke = "black"/>
</g>
<g>
<polygon points = "444.768, 19.213 476.660, 62.795 430.622, 74.047 "
fill = "red" stroke = "black"/>
</g>
<g>
<polygon points = "960.276, 278.582 954.115, 304.870 898.164, 289.573 898.209, 233.946 936.086, 227.125 "
fill = "red" stroke = "black"/>
</g>
<g>
<polygon points = "292.705, 302.242 273.824, 306.294 244.104, 298.319 233.611, 291.039 224.228, 273.109 271.897, 240.918 295.659, 246.871 "
fill = "red" stroke = "black"/>
</g>
<g>
<polygon points = "676.894, 653.786 674.826, 657.160 623.851, 673.801 612.854, 668.619 623.686, 606.761 646.287, 607.080 "
fill = "red" stroke = "black"/>
</g>
<g>
<polygon points = "711.267, 842.233 695.844, 864.975 692.069, 867.225 634.750, 866.815 642.293, 817.582 669.014, 792.884 675.443, 789.895 "
fill = "red" stroke = "black"/>
</g>
<g>
<polygon points = "496.706, 101.575 424.712, 156.051 410.710, 147.117 424.772, 98.164 495.198, 97.291 "
fill = "red" stroke = "black"/>
</g>
<g>
<polygon points = "869.317, 691.961 815.940, 688.676 846.827, 639.721 853.798, 640.917 "
fill = "red" stroke = "black"/>
</g>
<g>
<polygon points = "255.646, 93.101 232.722, 138.306 198.898, 140.800 191.705, 133.422 202.336, 86.437 "
fill = "red" stroke = "black"/>
</g>
<g>
<polygon points = "372.194, 303.069 378.526, 317.486 353.029, 357.755 343.744, 357.184 310.836, 303.065 328.781, 287.167 "
fill = "red" stroke = "black"/>
</g>
<g>
<polygon points = "934.773, 478.843 910.172, 426.623 959.753, 355.511 970.586, 351.504 1000.000, 358.902 1000.000, 484.598 "
fill = "red" stroke = "black"/>
</g>
<g>
<polygon points = "699.426, 149.471 670.543, 166.416 645.241, 122.726 "
fill = "red" stroke = "black"/>
</g>
<g>
<polygon points = "430.622, 74.047 476.660, 62.795 495.718, 83.890 495.198, 97.291 424.772, 98.164 417.479, 89.322 "
fill = "red" stroke = "black"/>
</g>
<g>
<polygon points = "371.406, 161.206 374.291, 155.766 388.411, 146.597 410.710, 147.117 424.712, 156.051 428.392, 163.074 431.038, 197.004 420.196, 215.962 371.309, 198.330 "
fill = "red" stroke = "black"/>
</g>
<g>
<polygon points = "734.225, 135.872 629.774, 80.716 699.183, 46.702 "
fill = "red" stroke = "black"/>
</g>
<g>
<polygon points = "502.463, 777.748 495.335, 809.205 457.424, 804.339 464.267, 780.740 "
fill = "red" stroke = "black"/>
</g>
<g>
<polygon points = "928.114, 47.174 949.726, 31.208 958.557, 51.688 954.482, 80.209 947.642, 83.648 "
fill = "red" stroke = "black"/>
</g>
<g>
<polygon points = "120.971, 73.956 190.625, 133.343 123.445, 154.803 84.286, 149.492 62.438, 143.958 65.229, 134.424 82.607, 114.592 "
fill = "red" stroke = "black"/>
</g>
<g>
<polygon points = "636.772, 528.596 638.750, 529.377 663.047, 545.765 671.194, 584.932 646.287, 607.080 623.686, 606.761 601.792, 592.370 600.690, 586.331 615.543, 541.926 "
fill = "red" stroke = "black"/>
</g>
<g>
<polygon points = "642.028, 708.699 643.917, 720.193 631.145, 738.193 600.026, 723.144 598.508, 719.637 635.890, 702.268 "
fill = "red" stroke = "black"/>
</g>
<g>
<polygon points = "801.397, 713.086 755.875, 688.665 765.441, 663.387 788.741, 649.594 811.383, 688.606 "
fill = "red" stroke = "black"/>
</g>
<g>
<polygon points = "424.664, 716.842 459.145, 732.105 465.051, 736.556 464.267, 780.740 457.424, 804.339 411.183, 828.616 387.852, 772.421 388.147, 765.856 "
fill = "red" stroke = "black"/>
</g>
<g>
<polygon points = "172.095, 692.404 207.243, 688.965 246.020, 733.207 235.529, 758.647 176.577, 740.194 "
fill = "red" stroke = "black"/>
</g>
<g>
<polygon points = "530.922, 575.646 595.613, 583.096 600.690, 586.331 601.792, 592.370 552.422, 627.284 "
fill = "red" stroke = "black"/>
</g>
<g>
<polygon points = "152.130, 5.537 189.752, 46.013 202.336, 86.437 191.705, 133.422 190.625, 133.343 120.971, 73.956 "
fill = "red" stroke = "black"/>
</g>
<g>
<polygon points = "84.385, 884.816 139.106, 824.741 148.975, 832.463 101.518, 905.625 "
fill = "red" stroke = "black"/>
</g>
<g>
<polygon points = "454.075, 270.963 490.960, 202.724 497.809, 198.788 500.408, 199.366 513.096, 241.444 509.183, 284.944 470.750, 292.026 "
fill = "red" stroke = "black"/>
</g>
<g>
<polygon points = "958.557, 51.688 949.726, 31.208 968.359, 0.000 1000.000, 0.000 1000.000, 119.021 "
fill = "red" stroke = "black"/>
</g>
<g>
<polygon points = "724.293, 591.757 713.794, 638.977 704.120, 647.146 676.894, 653.786 646.287, 607.080 671.194, 584.932 "
fill = "red" stroke = "black"/>
</g>
<g>
<polygon points = "769.865, 556.178 795.388, 635.719 788.741, 649.594 765.441, 663.387 713.794, 638.977 724.293, 591.757 "
fill = "red" stroke = "black"/>
</g>
<g>
<polygon points = "311.722, 757.629 311.658, 760.305 258.529, 826.390 240.928, 826.318 235.269, 762.580 235.529, 758.647 246.020, 733.207 246.474, 732.965 "
fill = "red" stroke = "black"/>
</g>
<g>
<polygon points = "536.461, 747.138 594.468, 744.608 606.455, 764.784 599.205, 786.137 560.899, 791.762 "
fill = "red" stroke = "black"/>
</g>
<g>
<polygon points = "151.169, 300.740 93.645, 261.971 94.342, 256.762 133.955, 239.375 181.869, 282.800 "
fill = "red" stroke = "black"/>
</g>
<g>
<polygon points = "45.282, 160.018 62.438, 143.958 84.286, 149.492 152.593, 224.500 133.955, 239.375 94.342, 256.762 "
fill = "red" stroke = "black"/>
</g>
<g>
<polygon points = "222.700, 271.858 181.869, 282.800 133.955, 239.375 152.593, 224.500 179.133, 212.435 198.689, 212.404 202.755, 215.741 "
fill = "red" stroke = "black"/>
</g>
<g>
<polygon points = "152.130, 5.537 120.971, 73.956 82.607, 114.592 63.960, 0.000 151.436, 0.000 "
fill = "red" stroke = "black"/>
</g>
<g>
<polygon points = "63.683, 422.748 108.459, 466.542 99.738, 516.938 0.000, 512.303 0.000, 410.394 "
fill = "red" stroke = "black"/>
</g>
<g>
<polygon points = "122.197, 775.056 118.301, 763.357 176.577, 740.194 235.529, 758.647 235.269, 762.580 "
fill = "red" stroke = "black"/>
</g>
<g>
<polygon points = "807.245, 294.214 772.144, 252.879 825.738, 234.236 813.339, 293.758 "
fill = "red" stroke = "black"/>
</g>
<g>
<polygon points = "699.183, 46.702 629.774, 80.716 621.539, 81.720 612.216, 73.456 584.135, 12.232 584.476, 0.000 718.976, 0.000 "
fill = "red" stroke = "black"/>
</g>
<g>
<polygon points = "604.176, 207.123 644.937, 199.920 651.589, 262.720 607.423, 258.821 "
fill = "red" stroke = "black"/>
</g>
<g>
<polygon points = "63.125, 871.028 86.525, 828.588 128.487, 814.407 139.106, 824.741 84.385, 884.816 "
fill = "red" stroke = "black"/>
</g>
<g>
<polygon points = "541.437, 936.700 494.093, 950.552 484.900, 912.586 503.380, 903.272 531.998, 924.433 "
fill = "red" stroke = "black"/>
</g>
<g>
<polygon points = "23.108, 804.266 84.553, 718.112 118.301, 763.357 122.197, 775.056 128.487, 814.407 86.525, 828.588 "
fill = "red" stroke = "black"/>
</g>
<g>
<polygon points = "490.960, 202.724 431.038, 197.004 428.392, 163.074 486.000, 167.487 497.809, 198.788 "
fill = "red" stroke = "black"/>
</g>
<g>
<polygon points = "573.785, 309.697 550.060, 293.282 552.662, 228.706 562.772, 195.853 576.998, 189.353 604.176, 207.123 607.423, 258.821 576.994, 308.414 "
fill = "red" stroke = "black"/>
</g>
<g>
<polygon points = "23.108, 804.266 86.525, 828.588 63.125, 871.028 0.000, 890.459 0.000, 813.945 "
fill = "red" stroke = "black"/>
</g>
<g>
<polygon points = "988.069, 870.649 955.882, 799.863 955.286, 792.098 1000.000, 788.666 1000.000, 870.823 "
fill = "red" stroke = "black"/>
</g>
<g>
<polygon points = "861.683, 846.231 936.315, 899.742 888.315, 898.745 849.753, 868.463 851.403, 847.066 "
fill = "red" stroke = "black"/>
</g>
<g>
<polygon points = "938.583, 957.209 950.264, 901.775 962.134, 887.268 988.069, 870.649 1000.000, 870.823 1000.000, 973.556 "
fill = "red" stroke = "black"/>
</g>
<g>
<polygon points = "806.957, 931.992 877.023, 914.602 898.668, 1000.000 774.095, 1000.000 772.429, 990.216 780.888, 958.970 "
fill = "red" stroke = "black"/>
</g>
<g>
<polygon points = "65.229, 134.424 62.438, 143.958 45.282, 160.018 0.000, 168.094 0.000, 0.000 11.418, 0.000 "
fill = "red" stroke = "black"/>
</g>
<g>
<polygon points = "554.144, 810.495 560.899, 791.762 599.205, 786.137 642.293, 817.582 634.750, 866.815 616.812, 887.589 600.641, 890.826 582.977, 879.120 "
fill = "red" stroke = "black"/>
</g>
<g>
<polygon points = "187.933, 627.823 165.606, 635.820 141.433, 616.563 178.470, 590.739 "
fill = "red" stroke = "black"/>
</g>
<g>
<polygon points = "936.086, 227.125 898.209, 233.946 878.881, 224.645 894.709, 169.165 947.379, 150.916 974.842, 149.204 985.845, 153.674 1000.000, 160.180 1000.000, 171.192 "
fill = "red" stroke = "black"/>
</g>
<g>
<polygon points = "408.083, 407.267 426.065, 457.723 321.365, 472.963 318.586, 438.521 318.654, 434.783 "
fill = "red" stroke = "black"/>
</g>
<g>
<polygon points = "560.065, 508.958 615.543, 541.926 600.690, 586.331 595.613, 583.096 506.855, 509.505 "
fill = "red" stroke = "black"/>
</g>
<g>
<polygon points = "617.647, 888.521 616.812, 887.589 634.750, 866.815 692.069, 867.225 709.600, 908.198 "
fill = "red" stroke = "black"/>
</g>
<g>
<polygon points = "550.060, 293.282 509.183, 284.944 513.096, 241.444 552.662, 228.706 "
fill = "red" stroke = "black"/>
</g>
<g>
<polygon points = "374.816, 17.449 281.319, 49.236 265.214, 0.000 383.004, 0.000 "
fill = "red" stroke = "black"/>
</g>
<g>
<polygon points = "537.980, 117.058 612.216, 73.456 621.539, 81.720 621.971, 109.740 618.599, 122.922 578.612, 170.117 "
fill = "red" stroke = "black"/>
</g>
<g>
<polygon points = "721.097, 399.328 754.746, 335.620 767.749, 338.782 810.425, 385.982 811.744, 388.273 751.092, 422.659 "
fill = "red" stroke = "black"/>
</g>
<g>
<polygon points = "45.282, 160.018 94.342, 256.762 93.645, 261.971 92.296, 263.835 0.000, 305.671 0.000, 168.094 "
fill = "red" stroke = "black"/>
</g>
<g>
<polygon points = "888.881, 70.301 888.493, 74.973 858.492, 119.570 838.301, 128.139 833.054, 128.314 801.119, 0.000 830.517, 0.000 "
fill = "red" stroke = "black"/>
</g>
<g>
<polygon points = "878.881, 224.645 872.325, 224.184 838.301, 128.139 858.492, 119.570 863.614, 123.908 894.709, 169.165 "
fill = "red" stroke = "black"/>
</g>
<g>
<polygon points = "960.276, 278.582 936.086, 227.125 1000.000, 171.192 1000.000, 270.800 "
fill = "red" stroke = "black"/>
</g>
<g>
<polygon points = "949.726, 31.208 928.114, 47.174 888.881, 70.301 830.517, 0.000 968.359, 0.000 "
fill = "red" stroke = "black"/>
</g>
<g>
<polygon points = "716.154, 482.876 638.750, 529.377 636.772, 528.596 635.188, 507.705 675.717, 463.727 "
fill = "red" stroke = "black"/>
</g>
<g>
<polygon points = "190.625, 133.343 191.705, 133.422 198.898, 140.800 198.689, 212.404 179.133, 212.435 123.445, 154.803 "
fill = "red" stroke = "black"/>
</g>
<g>
<polygon points = "950.264, 901.775 938.583, 957.209 905.658, 1000.000 898.668, 1000.000 877.023, 914.602 888.315, 898.745 936.315, 899.742 "
fill = "red" stroke = "black"/>
</g>
<g>
<polygon points = "631.085, 739.797 699.888, 765.339 698.650, 767.790 675.443, 789.895 669.014, 792.884 628.494, 749.535 "
fill = "red" stroke = "black"/>
</g>
<g>
<polygon points = "599.205, 786.137 606.455, 764.784 628.494, 749.535 669.014, 792.884 642.293, 817.582 "
fill = "red" stroke = "black"/>
</g>
<g>
<polygon points = "704.120, 647.146 724.190, 699.660 676.005, 672.496 674.826, 657.160 676.894, 653.786 "
fill = "red" stroke = "black"/>
</g>
<g>
<polygon points = "339.416, 736.003 388.147, 765.856 387.852, 772.421 345.346, 789.076 326.393, 789.469 311.658, 760.305 311.722, 757.629 "
fill = "red" stroke = "black"/>
</g>
<g>
<polygon points = "81.829, 337.992 101.131, 383.994 63.683, 422.748 0.000, 410.394 0.000, 354.467 "
fill = "red" stroke = "black"/>
</g>
<g>
<polygon points = "240.518, 387.878 205.224, 364.493 201.293, 360.089 222.021, 306.201 233.611, 291.039 244.104, 298.319 "
fill = "red" stroke = "black"/>
</g>
<g>
<polygon points = "584.135, 12.232 498.043, 81.322 504.269, 0.000 584.476, 0.000 "
fill = "red" stroke = "black"/>
</g>
<g>
<polygon points = "298.364, 509.779 271.057, 452.225 318.586, 438.521 321.365, 472.963 308.384, 506.595 "
fill = "red" stroke = "black"/>
</g>
<g>
<polygon points = "745.594, 969.250 709.600, 908.198 692.069, 867.225 695.844, 864.975 766.250, 887.594 780.888, 958.970 772.429, 990.216 "
fill = "red" stroke = "black"/>
</g>
<g>
<polygon points = "444.106, 482.047 426.065, 457.723 408.083, 407.267 408.285, 402.971 426.710, 381.525 498.550, 393.219 "
fill = "red" stroke = "black"/>
</g>
<g>
<polygon points = "942.382, 613.404 899.480, 590.661 885.461, 564.841 927.065, 484.867 934.773, 478.843 1000.000, 484.598 1000.000, 592.680 "
fill = "red" stroke = "black"/>
</g>
<g>
<polygon points = "286.268, 168.514 291.972, 153.944 329.069, 124.959 374.291, 155.766 371.406, 161.206 295.373, 179.532 287.387, 174.946 "
fill = "red" stroke = "black"/>
</g>
<g>
<polygon points = "426.012, 959.052 484.103, 981.554 490.952, 1000.000 422.254, 1000.000 "
fill = "red" stroke = "black"/>
</g>
<g>
<polygon points = "343.744, 357.184 353.029, 357.755 408.285, 402.971 408.083, 407.267 318.654, 434.783 292.323, 395.049 "
fill = "red" stroke = "black"/>
</g>
<g>
<polygon points = "811.887, 815.010 796.919, 811.473 780.704, 763.971 802.726, 740.742 897.626, 729.951 894.297, 737.134 "
fill = "red" stroke = "black"/>
</g>
<g>
<polygon points = "737.033, 488.983 748.878, 510.488 663.047, 545.765 638.750, 529.377 716.154, 482.876 "
fill = "red" stroke = "black"/>
</g>
<g>
<polygon points = "418.486, 673.024 433.138, 653.721 503.799, 687.005 459.145, 732.105 424.664, 716.842 "
fill = "red" stroke = "black"/>
</g>
<g>
<polygon points = "698.650, 767.790 742.553, 831.111 711.267, 842.233 675.443, 789.895 "
fill = "red" stroke = "black"/>
</g>
<g>
<polygon points = "576.389, 941.394 576.317, 937.302 600.641, 890.826 616.812, 887.589 617.647, 888.521 645.262, 922.103 639.080, 972.959 599.911, 1000.000 599.580, 1000.000 "
fill = "red" stroke = "black"/>
</g>
<g>
<polygon points = "394.628, 317.552 426.203, 256.604 454.075, 270.963 470.750, 292.026 462.148, 322.022 440.945, 342.057 "
fill = "red" stroke = "black"/>
</g>
<g>
<polygon points = "700.586, 303.788 702.192, 391.572 663.761, 406.086 644.329, 380.292 649.349, 325.159 698.945, 301.359 "
fill = "red" stroke = "black"/>
</g>
<g>
<polygon points = "334.814, 861.368 326.085, 854.700 345.346, 789.076 387.852, 772.421 411.183, 828.616 406.137, 872.748 405.560, 873.273 "
fill = "red" stroke = "black"/>
</g>
<g>
<polygon points = "639.171, 380.345 596.990, 393.723 558.834, 357.288 567.302, 337.130 "
fill = "red" stroke = "black"/>
</g>
<g>
<polygon points = "765.441, 663.387 755.875, 688.665 732.081, 715.459 724.190, 699.660 704.120, 647.146 713.794, 638.977 "
fill = "red" stroke = "black"/>
</g>
<g>
<polygon points = "770.825, 836.881 742.553, 831.111 698.650, 767.790 699.888, 765.339 710.474, 748.550 715.346, 744.392 724.391, 740.882 780.704, 763.971 796.919, 811.473 "
fill = "red" stroke = "black"/>
</g>
<g>
<polygon points = "970.586, 351.504 959.753, 355.511 900.306, 343.719 875.746, 327.976 875.389, 324.368 898.164, 289.573 954.115, 304.870 "
fill = "red" stroke = "black"/>
</g>
<g>
<polygon points = "710.474, 748.550 699.888, 765.339 631.085, 739.797 631.145, 738.193 643.917, 720.193 "
fill = "red" stroke = "black"/>
</g>
<g>
<polygon points = "532.071, 878.813 582.977, 879.120 600.641, 890.826 576.317, 937.302 541.437, 936.700 531.998, 924.433 523.011, 887.953 "
fill = "red" stroke = "black"/>
</g>
<g>
<polygon points = "232.722, 138.306 255.646, 93.101 263.735, 88.599 281.032, 111.700 291.972, 153.944 286.268, 168.514 "
fill = "red" stroke = "black"/>
</g>
<g>
<polygon points = "645.262, 922.103 617.647, 888.521 709.600, 908.198 745.594, 969.250 "
fill = "red" stroke = "black"/>
</g>
<g>
<polygon points = "125.719, 616.582 122.533, 690.747 83.598, 713.605 28.905, 669.848 "
fill = "red" stroke = "black"/>
</g>
<g>
<polygon points = "596.990, 393.723 600.060, 437.166 598.773, 437.796 542.664, 439.519 530.195, 381.947 558.834, 357.288 "
fill = "red" stroke = "black"/>
</g>
<g>
<polygon points = "675.486, 690.566 715.346, 744.392 710.474, 748.550 643.917, 720.193 642.028, 708.699 "
fill = "red" stroke = "black"/>
</g>
<g>
<polygon points = "724.391, 740.882 732.081, 715.459 755.875, 688.665 801.397, 713.086 802.726, 740.742 780.704, 763.971 "
fill = "red" stroke = "black"/>
</g>
<g>
<polygon points = "270.339, 827.998 326.393, 789.469 345.346, 789.076 326.085, 854.700 "
fill = "red" stroke = "black"/>
</g>
<g>
<polygon points = "905.658, 1000.000 938.583, 957.209 1000.000, 973.556 1000.000, 1000.000 "
fill = "red" stroke = "black"/>
</g>
<g>
<polygon points = "815.940, 688.676 811.383, 688.606 788.741, 649.594 795.388, 635.719 835.047, 637.325 846.827, 639.721 "
fill = "red" stroke = "black"/>
</g>
<g>
<polygon points = "174.085, 529.365 235.791, 566.790 235.629, 566.927 178.447, 586.605 134.564, 547.697 "
fill = "red" stroke = "black"/>
</g>
<g>
<polygon points = "985.845, 153.674 954.482, 80.209 958.557, 51.688 1000.000, 119.021 1000.000, 160.180 "
fill = "red" stroke = "black"/>
</g>
<g>
<polygon points = "728.238, 252.064 788.183, 303.200 767.749, 338.782 754.746, 335.620 700.586, 303.788 698.945, 301.359 700.801, 288.205 722.922, 250.764 "
fill = "red" stroke = "black"/>
</g>
<g>
<polygon points = "136.185, 340.978 92.332, 296.223 92.296, 263.835 93.645, 261.971 151.169, 300.740 149.950, 345.722 "
fill = "red" stroke = "black"/>
</g>
<g>
<polygon points = "371.309, 198.330 420.196, 215.962 423.630, 254.430 416.586, 255.534 358.409, 219.757 357.427, 211.852 "
fill = "red" stroke = "black"/>
</g>
<g>
<polygon points = "928.114, 47.174 947.642, 83.648 947.321, 121.441 888.493, 74.973 888.881, 70.301 "
fill = "red" stroke = "black"/>
</g>
<g>
<polygon points = "888.078, 785.566 846.824, 840.696 811.887, 815.010 894.297, 737.134 888.719, 783.387 "
fill = "red" stroke = "black"/>
</g>
<g>
<polygon points = "776.526, 537.113 748.878, 510.488 737.033, 488.983 751.092, 422.659 811.744, 388.273 818.326, 390.094 831.691, 405.483 831.076, 477.284 785.866, 534.908 "
fill = "red" stroke = "black"/>
</g>
<g>
<polygon points = "322.861, 93.643 281.032, 111.700 263.735, 88.599 274.741, 55.968 280.702, 50.615 "
fill = "red" stroke = "black"/>
</g>
<g>
<polygon points = "947.379, 150.916 863.614, 123.908 858.492, 119.570 888.493, 74.973 947.321, 121.441 974.842, 149.204 "
fill = "red" stroke = "black"/>
</g>
<g>
<polygon points = "530.195, 381.947 542.664, 439.519 502.872, 508.695 490.432, 513.623 460.606, 517.085 444.106, 482.047 498.550, 393.219 528.031, 381.606 "
fill = "red" stroke = "black"/>
</g>
<g>
<polygon points = "122.533, 690.747 143.868, 684.702 172.095, 692.404 176.577, 740.194 118.301, 763.357 84.553, 718.112 83.598, 713.605 "
fill = "red" stroke = "black"/>
</g>
<g>
<polygon points = "927.065, 484.867 885.461, 564.841 835.092, 552.306 785.866, 534.908 831.076, 477.284 "
fill = "red" stroke = "black"/>
</g>
<g>
<polygon points = "428.392, 163.074 424.712, 156.051 496.706, 101.575 498.661, 104.028 486.000, 167.487 "
fill = "red" stroke = "black"/>
</g>
<g>
<polygon points = "533.382, 743.619 517.118, 747.868 465.051, 736.556 459.145, 732.105 503.799, 687.005 549.893, 687.107 "
fill = "red" stroke = "black"/>
</g>
<g>
<polygon points = "149.950, 345.722 151.169, 300.740 181.869, 282.800 222.700, 271.858 224.228, 273.109 233.611, 291.039 222.021, 306.201 150.364, 346.534 "
fill = "red" stroke = "black"/>
</g>
<g>
<polygon points = "766.250, 887.594 695.844, 864.975 711.267, 842.233 742.553, 831.111 770.825, 836.881 "
fill = "red" stroke = "black"/>
</g>
<g>
<polygon points = "636.772, 528.596 615.543, 541.926 560.065, 508.958 592.061, 488.063 622.636, 494.137 635.188, 507.705 "
fill = "red" stroke = "black"/>
</g>
<g>
<polygon points = "830.610, 228.906 857.620, 228.530 848.806, 302.929 817.520, 297.021 813.339, 293.758 825.738, 234.236 "
fill = "red" stroke = "black"/>
</g>
<g>
<polygon points = "122.197, 775.056 235.269, 762.580 240.928, 826.318 210.683, 858.867 148.975, 832.463 139.106, 824.741 128.487, 814.407 "
fill = "red" stroke = "black"/>
</g>
<g>
<polygon points = "484.900, 912.586 436.029, 878.284 509.483, 855.647 532.071, 878.813 523.011, 887.953 503.380, 903.272 "
fill = "red" stroke = "black"/>
</g>
<g>
<polygon points = "143.868, 684.702 122.533, 690.747 125.719, 616.582 129.013, 610.908 141.433, 616.563 165.606, 635.820 "
fill = "red" stroke = "black"/>
</g>
<g>
<polygon points = "374.816, 17.449 375.975, 63.144 367.557, 78.873 334.189, 99.028 322.861, 93.643 280.702, 50.615 281.319, 49.236 "
fill = "red" stroke = "black"/>
</g>
<g>
<polygon points = "890.163, 416.026 900.306, 343.719 959.753, 355.511 910.172, 426.623 "
fill = "red" stroke = "black"/>
</g>
<g>
<polygon points = "838.301, 128.139 872.325, 224.184 857.620, 228.530 830.610, 228.906 817.881, 213.323 791.159, 140.398 833.054, 128.314 "
fill = "red" stroke = "black"/>
</g>
<g>
<polygon points = "449.902, 612.568 543.659, 644.573 553.874, 682.096 549.893, 687.107 503.799, 687.005 433.138, 653.721 "
fill = "red" stroke = "black"/>
</g>
<g>
<polygon points = "408.285, 402.971 353.029, 357.755 378.526, 317.486 394.628, 317.552 440.945, 342.057 426.710, 381.525 "
fill = "red" stroke = "black"/>
</g>
<g>
<polygon points = "600.026, 723.144 631.145, 738.193 631.085, 739.797 628.494, 749.535 606.455, 764.784 594.468, 744.608 "
fill = "red" stroke = "black"/>
</g>
<g>
<polygon points = "104.997, 949.234 103.113, 946.112 102.088, 940.764 105.585, 929.971 210.997, 867.650 233.545, 943.899 "
fill = "red" stroke = "black"/>
</g>
<g>
<polygon points = "101.131, 383.994 81.829, 337.992 82.446, 337.282 136.185, 340.978 149.950, 345.722 150.364, 346.534 151.161, 350.736 114.673, 381.345 "
fill = "red" stroke = "black"/>
</g>
<g>
<polygon points = "418.486, 673.024 424.664, 716.842 388.147, 765.856 339.416, 736.003 317.205, 687.455 339.866, 659.112 "
fill = "red" stroke = "black"/>
</g>
<g>
<polygon points = "257.553, 985.238 334.814, 861.368 405.560, 873.273 392.553, 931.842 318.955, 1000.000 262.371, 1000.000 "
fill = "red" stroke = "black"/>
</g>
<g>
<polygon points = "444.768, 19.213 430.622, 74.047 417.479, 89.322 375.975, 63.144 374.816, 17.449 383.004, 0.000 433.667, 0.000 "
fill = "red" stroke = "black"/>
</g>
<g>
<polygon points = "600.026, 723.144 594.468, 744.608 536.461, 747.138 533.382, 743.619 549.893, 687.107 553.874, 682.096 559.766, 682.796 598.508, 719.637 "
fill = "red" stroke = "black"/>
</g>
<g>
<polygon points = "644.937, 199.920 646.192, 199.367 722.078, 242.425 722.922, 250.764 700.801, 288.205 651.589, 262.720 "
fill = "red" stroke = "black"/>
</g>
<g>
<polygon points = "503.420, 817.951 511.332, 822.689 509.483, 855.647 436.029, 878.284 434.245, 877.721 "
fill = "red" stroke = "black"/>
</g>
<g>
<polygon points = "875.746, 327.976 900.306, 343.719 890.163, 416.026 831.691, 405.483 818.326, 390.094 "
fill = "red" stroke = "black"/>
</g>
<g>
<polygon points = "517.118, 747.868 533.382, 743.619 536.461, 747.138 560.899, 791.762 554.144, 810.495 511.332, 822.689 503.420, 817.951 495.335, 809.205 502.463, 777.748 "
fill = "red" stroke = "black"/>
</g>
<g>
<polygon points = "490.432, 513.623 502.872, 508.695 506.855, 509.505 595.613, 583.096 530.922, 575.646 "
fill = "red" stroke = "black"/>
</g>
<g>
<polygon points = "795.388, 635.719 769.865, 556.178 776.526, 537.113 785.866, 534.908 835.092, 552.306 835.047, 637.325 "
fill = "red" stroke = "black"/>
</g>
<g>
<polygon points = "217.016, 648.727 250.576, 641.237 286.886, 694.769 246.474, 732.965 246.020, 733.207 207.243, 688.965 "
fill = "red" stroke = "black"/>
</g>
<g>
<polygon points = "754.746, 335.620 721.097, 399.328 702.192, 391.572 700.586, 303.788 "
fill = "red" stroke = "black"/>
</g>
<g>
<polygon points = "940.040, 727.834 930.084, 722.654 942.382, 613.404 1000.000, 592.680 1000.000, 720.798 "
fill = "red" stroke = "black"/>
</g>
<g>
<polygon points = "897.873, 837.184 962.134, 887.268 950.264, 901.775 936.315, 899.742 861.683, 846.231 "
fill = "red" stroke = "black"/>
</g>
<g>
<polygon points = "392.553, 931.842 426.012, 959.052 422.254, 1000.000 318.955, 1000.000 "
fill = "red" stroke = "black"/>
</g>
<g>
<polygon points = "830.610, 228.906 825.738, 234.236 772.144, 252.879 728.238, 252.064 722.922, 250.764 722.078, 242.425 732.430, 213.973 817.881, 213.323 "
fill = "red" stroke = "black"/>
</g>
<g>
<polygon points = "257.553, 985.238 233.545, 943.899 210.997, 867.650 210.683, 858.867 240.928, 826.318 258.529, 826.390 270.339, 827.998 326.085, 854.700 334.814, 861.368 "
fill = "red" stroke = "black"/>
</g>
<g>
<polygon points = "848.806, 302.929 857.620, 228.530 872.325, 224.184 878.881, 224.645 898.209, 233.946 898.164, 289.573 875.389, 324.368 "
fill = "red" stroke = "black"/>
</g>
<g>
<polygon points = "99.738, 516.938 115.179, 547.610 111.563, 555.682 0.000, 640.601 0.000, 512.303 "
fill = "red" stroke = "black"/>
</g>
<g>
<polygon points = "970.586, 351.504 954.115, 304.870 960.276, 278.582 1000.000, 270.800 1000.000, 358.902 "
fill = "red" stroke = "black"/>
</g>
<g>
<polygon points = "257.238, 561.896 235.791, 566.790 174.085, 529.365 208.228, 467.303 272.520, 521.752 "
fill = "red" stroke = "black"/>
</g>
<g>
<polygon points = "877.023, 914.602 806.957, 931.992 849.753, 868.463 888.315, 898.745 "
fill = "red" stroke = "black"/>
</g>
<g>
<polygon points = "111.563, 555.682 129.013, 610.908 125.719, 616.582 28.905, 669.848 0.000, 652.660 0.000, 640.601 "
fill = "red" stroke = "black"/>
</g>
<g>
<polygon points = "273.824, 306.294 292.705, 302.242 310.836, 303.065 343.744, 357.184 292.323, 395.049 289.742, 394.449 "
fill = "red" stroke = "black"/>
</g>
<g>
<polygon points = "766.250, 887.594 770.825, 836.881 796.919, 811.473 811.887, 815.010 846.824, 840.696 851.403, 847.066 849.753, 868.463 806.957, 931.992 780.888, 958.970 "
fill = "red" stroke = "black"/>
</g>
<g>
<polygon points = "102.088, 940.764 103.113, 946.112 29.658, 973.962 0.000, 942.645 0.000, 898.994 "
fill = "red" stroke = "black"/>
</g>
<g>
<polygon points = "426.203, 256.604 423.630, 254.430 420.196, 215.962 431.038, 197.004 490.960, 202.724 454.075, 270.963 "
fill = "red" stroke = "black"/>
</g>
<g>
<polygon points = "769.865, 556.178 724.293, 591.757 671.194, 584.932 663.047, 545.765 748.878, 510.488 776.526, 537.113 "
fill = "red" stroke = "black"/>
</g>
<g>
<polygon points = "101.131, 383.994 114.673, 381.345 162.090, 442.876 108.459, 466.542 63.683, 422.748 "
fill = "red" stroke = "black"/>
</g>
<g>
<polygon points = "502.872, 508.695 542.664, 439.519 598.773, 437.796 592.061, 488.063 560.065, 508.958 506.855, 509.505 "
fill = "red" stroke = "black"/>
</g>
<g>
<polygon points = "553.874, 682.096 543.659, 644.573 552.422, 627.284 601.792, 592.370 623.686, 606.761 612.854, 668.619 559.766, 682.796 "
fill = "red" stroke = "black"/>
</g>
<g>
<polygon points = "281.032, 111.700 322.861, 93.643 334.189, 99.028 329.069, 124.959 291.972, 153.944 "
fill = "red" stroke = "black"/>
</g>
<g>
<polygon points = "411.183, 828.616 457.424, 804.339 495.335, 809.205 503.420, 817.951 434.245, 877.721 406.137, 872.748 "
fill = "red" stroke = "black"/>
</g>
<g>
<polygon points = "592.061, 488.063 598.773, 437.796 600.060, 437.166 625.451, 440.480 622.636, 494.137 "
fill = "red" stroke = "black"/>
</g>
<g>
<polygon points = "600.060, 437.166 596.990, 393.723 639.171, 380.345 644.329, 380.292 663.761, 406.086 654.385, 432.986 625.451, 440.480 "
fill = "red" stroke = "black"/>
</g>
<g>
<polygon points = "198.898, 140.800 232.722, 138.306 286.268, 168.514 287.387, 174.946 284.266, 178.089 202.755, 215.741 198.689, 212.404 "
fill = "red" stroke = "black"/>
</g>
<g>
<polygon points = "63.125, 871.028 84.385, 884.816 101.518, 905.625 105.585, 929.971 102.088, 940.764 0.000, 898.994 0.000, 890.459 "
fill = "red" stroke = "black"/>
</g>
<g>
<polygon points = "962.134, 887.268 897.873, 837.184 899.927, 832.397 917.296, 816.569 955.882, 799.863 988.069, 870.649 "
fill = "red" stroke = "black"/>
</g>
<g>
<polygon points = "517.118, 747.868 502.463, 777.748 464.267, 780.740 465.051, 736.556 "
fill = "red" stroke = "black"/>
</g>
<g>
<polygon points = "802.726, 740.742 801.397, 713.086 811.383, 688.606 815.940, 688.676 869.317, 691.961 901.145, 726.749 897.626, 729.951 "
fill = "red" stroke = "black"/>
</g>
<g>
<polygon points = "329.069, 124.959 334.189, 99.028 367.557, 78.873 388.411, 146.597 374.291, 155.766 "
fill = "red" stroke = "black"/>
</g>
<g>
<polygon points = "371.406, 161.206 371.309, 198.330 357.427, 211.852 315.804, 203.802 295.373, 179.532 "
fill = "red" stroke = "black"/>
</g>
<g>
<polygon points = "639.080, 972.959 645.262, 922.103 745.594, 969.250 772.429, 990.216 774.095, 1000.000 700.931, 1000.000 "
fill = "red" stroke = "black"/>
</g>
<g>
<polygon points = "284.266, 178.089 271.897, 240.918 224.228, 273.109 222.700, 271.858 202.755, 215.741 "
fill = "red" stroke = "black"/>
</g>
<g>
<polygon points = "578.612, 170.117 618.599, 122.922 656.770, 175.244 646.192, 199.367 644.937, 199.920 604.176, 207.123 576.998, 189.353 "
fill = "red" stroke = "black"/>
</g>
<g>
<polygon points = "326.393, 789.469 270.339, 827.998 258.529, 826.390 311.658, 760.305 "
fill = "red" stroke = "black"/>
</g>
<g>
<polygon points = "203.021, 451.592 174.728, 440.979 172.394, 416.911 205.224, 364.493 240.518, 387.878 248.851, 401.855 233.467, 422.838 "
fill = "red" stroke = "black"/>
</g>
<g>
<polygon points = "82.446, 337.282 92.332, 296.223 136.185, 340.978 "
fill = "red" stroke = "black"/>
</g>
<g>
<polygon points = "772.144, 252.879 807.245, 294.214 788.183, 303.200 728.238, 252.064 "
fill = "red" stroke = "black"/>
</g>
<g>
<polygon points = "235.629, 566.927 202.580, 632.521 187.933, 627.823 178.470, 590.739 178.447, 586.605 "
fill = "red" stroke = "black"/>
</g>
<g>
<polygon points = "327.186, 617.752 277.945, 598.223 257.238, 561.896 272.520, 521.752 298.364, 509.779 308.384, 506.595 380.576, 551.266 "
fill = "red" stroke = "black"/>
</g>
<g>
<polygon points = "277.945, 598.223 250.576, 641.237 217.016, 648.727 202.580, 632.521 235.629, 566.927 235.791, 566.790 257.238, 561.896 "
fill = "red" stroke = "black"/>
</g>
<g>
<polygon points = "554.144, 810.495 582.977, 879.120 532.071, 878.813 509.483, 855.647 511.332, 822.689 "
fill = "red" stroke = "black"/>
</g>
<g>
<polygon points = "576.389, 941.394 599.580, 1000.000 515.543, 1000.000 "
fill = "red" stroke = "black"/>
</g>
<g>
<polygon points = "449.902, 612.568 433.138, 653.721 418.486, 673.024 339.866, 659.112 327.186, 617.752 380.576, 551.266 440.735, 544.193 "
fill = "red" stroke = "black"/>
</g>
<g>
<polygon points = "328.781, 287.167 310.836, 303.065 292.705, 302.242 295.659, 246.871 313.135, 240.236 336.675, 263.006 "
fill = "red" stroke = "black"/>
</g>
<g>
<polygon points = "240.518, 387.878 244.104, 298.319 273.824, 306.294 289.742, 394.449 248.851, 401.855 "
fill = "red" stroke = "black"/>
</g>
<g>
<polygon points = "584.135, 12.232 612.216, 73.456 537.980, 117.058 511.393, 110.258 498.661, 104.028 496.706, 101.575 495.198, 97.291 495.718, 83.890 498.043, 81.322 "
fill = "red" stroke = "black"/>
</g>
<g>
<polygon points = "722.078, 242.425 646.192, 199.367 656.770, 175.244 670.543, 166.416 699.426, 149.471 736.852, 139.390 740.937, 141.154 732.430, 213.973 "
fill = "red" stroke = "black"/>
</g>
<g>
<polygon points = "676.005, 672.496 724.190, 699.660 732.081, 715.459 724.391, 740.882 715.346, 744.392 675.486, 690.566 "
fill = "red" stroke = "black"/>
</g>
<g>
<polygon points = "639.080, 972.959 700.931, 1000.000 599.911, 1000.000 "
fill = "red" stroke = "black"/>
</g>
<g>
<polygon points = "537.980, 117.058 578.612, 170.117 576.998, 189.353 562.772, 195.853 531.262, 193.207 511.393, 110.258 "
fill = "red" stroke = "black"/>
</g>
<g>
<polygon points = "644.329, 380.292 639.171, 380.345 567.302, 337.130 573.785, 309.697 576.994, 308.414 649.349, 325.159 "
fill = "red" stroke = "black"/>
</g>
<g>
<polygon points = "490.432, 513.623 530.922, 575.646 552.422, 627.284 543.659, 644.573 449.902, 612.568 440.735, 544.193 460.606, 517.085 "
fill = "red" stroke = "black"/>
</g>
<g>
<polygon points = "386.792, 266.155 372.194, 303.069 328.781, 287.167 336.675, 263.006 351.378, 254.984 "
fill = "red" stroke = "black"/>
</g>
<g>
<polygon points = "810.425, 385.982 767.749, 338.782 788.183, 303.200 807.245, 294.214 813.339, 293.758 817.520, 297.021 "
fill = "red" stroke = "black"/>
</g>
<g>
<polygon points = "104.997, 949.234 233.545, 943.899 257.553, 985.238 262.371, 1000.000 112.362, 1000.000 "
fill = "red" stroke = "black"/>
</g>
<g>
<polygon points = "92.296, 263.835 92.332, 296.223 82.446, 337.282 81.829, 337.992 0.000, 354.467 0.000, 305.671 "
fill = "red" stroke = "black"/>
</g>
<g>
<polygon points = "172.394, 416.911 156.372, 355.424 201.293, 360.089 205.224, 364.493 "
fill = "red" stroke = "black"/>
</g>
<g>
<polygon points = "737.033, 488.983 716.154, 482.876 675.717, 463.727 654.385, 432.986 663.761, 406.086 702.192, 391.572 721.097, 399.328 751.092, 422.659 "
fill = "red" stroke = "black"/>
</g>
<g>
<polygon points = "29.658, 973.962 35.570, 1000.000 0.000, 1000.000 0.000, 942.645 "
fill = "red" stroke = "black"/>
</g>
<g>
<polygon points = "339.416, 736.003 311.722, 757.629 246.474, 732.965 286.886, 694.769 317.205, 687.455 "
fill = "red" stroke = "black"/>
</g>
<g>
<polygon points = "656.770, 175.244 618.599, 122.922 621.971, 109.740 645.241, 122.726 670.543, 166.416 "
fill = "red" stroke = "black"/>
</g>
<g>
<polygon points = "143.868, 684.702 165.606, 635.820 187.933, 627.823 202.580, 632.521 217.016, 648.727 207.243, 688.965 172.095, 692.404 "
fill = "red" stroke = "black"/>
</g>
<g>
<polygon points = "621.971, 109.740 621.539, 81.720 629.774, 80.716 734.225, 135.872 736.852, 139.390 699.426, 149.471 645.241, 122.726 "
fill = "red" stroke = "black"/>
</g>
<g>
<polygon points = "676.005, 672.496 675.486, 690.566 642.028, 708.699 635.890, 702.268 623.851, 673.801 674.826, 657.160 "
fill = "red" stroke = "black"/>
</g>
<g>
<polygon points = "899.927, 832.397 897.873, 837.184 861.683, 846.231 851.403, 847.066 846.824, 840.696 888.078, 785.566 "
fill = "red" stroke = "black"/>
</g>
<g>
<polygon points = "99.738, 516.938 108.459, 466.542 162.090, 442.876 174.728, 440.979 203.021, 451.592 208.228, 467.303 174.085, 529.365 134.564, 547.697 115.179, 547.610 "
fill = "red" stroke = "black"/>
</g>
<g>
<polygon points = "818.326, 390.094 811.744, 388.273 810.425, 385.982 817.520, 297.021 848.806, 302.929 875.389, 324.368 875.746, 327.976 "
fill = "red" stroke = "black"/>
</g>
<g>
<polygon points = "899.927, 832.397 888.078, 785.566 888.719, 783.387 917.296, 816.569 "
fill = "red" stroke = "black"/>
</g>
<g>
<polygon points = "423.630, 254.430 426.203, 256.604 394.628, 317.552 378.526, 317.486 372.194, 303.069 386.792, 266.155 416.586, 255.534 "
fill = "red" stroke = "black"/>
</g>
<g>
<polygon points = "890.163, 416.026 910.172, 426.623 934.773, 478.843 927.065, 484.867 831.076, 477.284 831.691, 405.483 "
fill = "red" stroke = "black"/>
</g>
<g>
<polygon points = "761.577, 134.357 740.937, 141.154 736.852, 139.390 734.225, 135.872 699.183, 46.702 718.976, 0.000 787.872, 0.000 "
fill = "red" stroke = "black"/>
</g>
<g>
<polygon points = "189.752, 46.013 274.741, 55.968 263.735, 88.599 255.646, 93.101 202.336, 86.437 "
fill = "red" stroke = "black"/>
</g>
</svg>
